<?xml version="1.0" encoding="UTF-8"?>
<svg width="604px" height="463px" viewBox="0 0 604 463" version="1.1" xmlns="http://www.w3.org/2000/svg" xmlns:xlink="http://www.w3.org/1999/xlink">
    <title>car-6275817</title>
    <defs>
        <linearGradient x1="50%" y1="26.0896039%" x2="50%" y2="100%" id="linearGradient-1">
            <stop stop-color="#FFFFFF" offset="0%"></stop>
            <stop stop-color="#000000" offset="100%"></stop>
        </linearGradient>
        <radialGradient cx="50%" cy="44.5247889%" fx="50%" fy="44.5247889%" r="296.711668%" gradientTransform="translate(0.500000,0.445248),scale(1.000000,0.268037),rotate(90.000000),scale(1.000000,0.502713),translate(-0.500000,-0.445248)" id="radialGradient-2">
            <stop stop-color="#FFFFFF" offset="0%"></stop>
            <stop stop-color="#000000" offset="100%"></stop>
        </radialGradient>
    </defs>
    <g id="Page-1" stroke="none" stroke-width="1" fill="none" fill-rule="evenodd">
        <g id="Artboard" transform="translate(-108.000000, -35.000000)" fill-rule="nonzero">
            <g id="car-6275817" transform="translate(108.790000, 35.003307)">
                <path d="M588.13,288.056693 C587.6,292.446693 586.98,296.846693 586.28,301.186693 C582.744464,322.502179 577.908773,343.581518 571.8,364.306693 C567.15817,366.025129 562.296759,367.078884 557.36,367.436693 C541.36,368.676693 305.06,373.596693 299.52,373.596693 C293.98,373.596693 57.67,368.676693 41.67,367.436693 C37.2230455,367.108848 32.8351377,366.221859 28.61,364.796693 C22.4268967,343.915173 17.540907,322.671305 13.98,301.186693 C13.28,296.846693 12.66,292.446693 12.13,288.056693 C7.25,247.456693 -4.42,195.756693 71.21,160.056693 L115.12,25.9966926 C116.51142,21.7824561 120.13751,18.6964224 124.52,17.9966926 C148.79,14.0866926 230.33,1.99669265 300.13,2.51669265 C369.94,1.99669265 451.47,14.0866926 475.74,17.9966926 C480.126285,18.6929788 483.756946,21.7796188 485.15,25.9966926 L529.06,160.076693 C604.69,195.756693 593.02,247.456693 588.13,288.056693 Z" id="Path" fill="#99BDCF"></path>
                <path d="M299.52,376.096693 C297.73,376.096693 58.64,371.256693 41.52,369.926693 C36.8618062,369.581239 32.2656519,368.650585 27.84,367.156693 L26.62,366.736693 L26.25,365.506693 C20.0454987,344.517817 15.1362525,323.167606 11.55,301.576693 C10.85,297.226693 10.22,292.776693 9.69,288.356693 C9.39666667,285.956693 9.09,283.520026 8.77,281.046693 C3.72,241.616693 -2.56,192.596693 69.21,158.256693 L112.74,25.1966926 C114.410823,20.0810778 118.805179,16.3315873 124.12,15.4866926 C147.71,11.7266926 230.12,-0.513307355 300.12,0.0166926455 C370.12,-0.503307355 452.51,11.7266926 476.12,15.4866926 C481.438115,16.3220683 485.838412,20.0694671 487.51,25.1866926 L531.09,158.256693 C602.87,192.596693 596.57,241.626693 591.52,281.056693 C591.2,283.523359 590.893333,285.953359 590.6,288.346693 L590.6,288.346693 C590.07,292.756693 589.44,297.206693 588.74,301.566693 C585.183527,322.984343 580.331284,344.166567 574.21,364.996693 L573.85,366.196693 L572.69,366.636693 C567.825117,368.433041 562.732031,369.53716 557.56,369.916693 C540.39,371.256693 301.3,376.096693 299.52,376.096693 Z M30.63,362.826693 C34.2824755,363.948475 38.0494458,364.656249 41.86,364.936693 C58.98,366.266693 297.74,371.096693 299.52,371.096693 C301.3,371.096693 540.04,366.266693 557.16,364.936693 C561.451348,364.625954 565.685525,363.769037 569.76,362.386693 C575.662023,342.150477 580.353661,321.580731 583.81,300.786693 C584.5,296.486693 585.12,292.106693 585.65,287.786693 C585.94,285.376693 586.25,282.926693 586.57,280.456693 C591.7,240.456693 597.51,195.156693 527.99,162.346693 L526.99,161.886693 L482.77,26.7466926 C481.678258,23.4129688 478.814096,20.9695527 475.35,20.4166926 C451.85,16.6766926 369.78,4.49669265 300.15,4.99669265 C230.46,4.46669265 148.4,16.6566926 124.91,20.3966926 C121.444406,20.9534351 118.580612,23.4003967 117.49,26.7366926 L73.21,161.856693 L72.21,162.316693 C2.7,195.126693 8.5,240.436693 13.62,280.406693 C13.94,282.886693 14.25,285.346693 14.54,287.756693 C15.07,292.106693 15.68,296.496693 16.38,300.756693 C19.8781324,321.714299 24.6367673,342.441911 30.63,362.826693 L30.63,362.826693 Z" id="Shape" fill="#000000"></path>
                <path d="M602.31,308.156693 L602.31,455.436693 C602.31,459.302686 599.175993,462.436693 595.31,462.436693 L526.41,462.436693 C522.544007,462.436693 519.41,459.302686 519.41,455.436693 L519.41,425.486693 C519.41,421.620699 516.275993,418.486693 512.41,418.486693 L89.87,418.486693 C86.0040068,418.486693 82.87,421.620699 82.87,425.486693 L82.87,455.236693 C82.87,459.202097 79.6554045,462.416693 75.69,462.416693 L7,462.416693 C3.13400675,462.416693 0,459.282686 0,455.416693 L0,308.366693 C0,304.401288 3.2145955,301.186628 7.18,301.186628 L13.95,301.186628 C17.520761,322.67195 22.4167718,343.915827 28.61,364.796693 C32.8351377,366.221859 37.2230455,367.108848 41.67,367.436693 C57.67,368.676693 293.98,373.596693 299.52,373.596693 C305.06,373.596693 541.36,368.676693 557.36,367.436693 C562.296759,367.078884 567.15817,366.025129 571.8,364.306693 C577.908773,343.581518 582.744464,322.502179 586.28,301.186628 L595.28,301.186628 C597.136521,301.178719 598.920169,301.908581 600.238553,303.215713 C601.556937,304.522845 602.302061,306.300172 602.31,308.156693 L602.31,308.156693 Z" id="Path" fill="#000000"></path>
                <path d="M465.45,250.786693 C470.305472,250.939547 474.782526,253.446698 477.45,257.506693 L508.31,304.506693 C510.890506,308.433901 511.468614,313.347823 509.87,317.766693 L502.73,337.476693 C500.794513,342.97819 495.802978,346.825668 489.99,347.296693 L302.47,354.996693 C301.38,355.046693 303.55,355.046693 302.47,354.996693 L110.21,347.326693 C104.396166,346.851986 99.403439,343.006607 97.46,337.506693 L90.33,317.796693 C88.728448,313.379374 89.3028392,308.465549 91.88,304.536693 L122.75,257.536693 C125.415096,253.474147 129.893595,250.966187 134.75,250.816693 L288.6,245.966693 C295.84,245.740026 303.076667,245.740026 310.31,245.966693 L465.45,250.786693 Z" id="Path" fill="#FFFFFF"></path>
                <path d="M302.47,359.526693 C302.158758,359.524797 301.848019,359.501408 301.54,359.456693 L110.06,351.826693 C102.400807,351.287491 95.796434,346.243794 93.26,338.996693 L86.13,319.286693 C84.050145,313.538409 84.7907442,307.147038 88.13,302.026693 L118.99,255.026693 C122.47147,249.726561 128.321356,246.460032 134.66,246.276693 L288.5,241.426693 C295.79,241.196693 303.19,241.196693 310.5,241.426693 L465.57,246.276693 C471.893688,246.45792 477.731345,249.712675 481.21,254.996693 L512.08,301.996693 C515.414726,307.118673 516.155071,313.507853 514.08,319.256693 L507,338.996693 C504.467216,346.242244 497.866427,351.286205 490.21,351.826693 L303.37,359.456693 C303.071895,359.500053 302.771225,359.523438 302.47,359.526693 L302.47,359.526693 Z M299.56,250.266693 C295.96,250.266693 292.37,250.266693 288.81,250.426693 L134.95,255.286693 C131.547241,255.3765 128.404753,257.128969 126.54,259.976693 L95.67,306.976693 C93.8798173,309.72394 93.480093,313.151206 94.59,316.236693 L101.72,335.996693 C103.04027,339.796385 106.455432,342.476936 110.46,342.856693 L302.46,350.506693 L489.84,342.856693 C493.828578,342.459662 497.223615,339.782656 498.54,335.996693 L505.68,316.286693 C506.786965,313.199663 506.383529,309.772303 504.59,307.026693 L473.73,260.026693 C471.861646,257.182839 468.72136,255.431597 465.32,255.336693 L465.32,255.336693 L310.21,250.426693 C306.69,250.316693 303.12,250.266693 299.56,250.266693 L299.56,250.266693 Z" id="Shape" fill="#000000"></path>
                <path d="M592.86,378.426693 C592.330214,385.444084 586.932285,391.117973 579.95,391.996693 C560.26,394.486693 516.88,399.526693 481.06,400.436693 C433.71,401.656693 334.28,404.066693 299.69,403.536693 L300.75,403.536693 L298.29,403.536693 L299.35,403.536693 C264.76,404.066693 165.35,401.656693 117.98,400.436693 C82.15,399.526693 38.78,394.486693 19.09,391.996693 C12.1194834,391.104842 6.73720604,385.434228 6.21,378.426693 C5.58,370.126693 7.07,360.516693 17.09,359.826693 C20.5607253,362.484813 24.4696202,364.515407 28.64,365.826693 C32.8651377,367.251859 37.2530455,368.138848 41.7,368.466693 C57.7,369.706693 294.01,374.626693 299.55,374.626693 C305.09,374.626693 541.39,369.706693 557.39,368.466693 C562.326759,368.108884 567.18817,367.055129 571.83,365.336693 C575.495558,364.068465 578.932913,362.218101 582.01,359.856693 C592,360.516693 593.48,370.126693 592.86,378.426693 Z" id="Path" fill="url(#linearGradient-1)"></path>
                <path d="M311.33,404.606693 C306.9,404.606693 302.99,404.606693 299.67,404.536693 L299.52,404.536693 L299.36,404.536693 C266.05,405.046693 171.36,402.806693 117.95,401.436693 C82.95,400.546693 40.89,395.756693 18.95,392.986693 C11.522576,392.008004 5.79293092,385.965605 5.21,378.496693 C4.67,371.316693 5.85,365.996693 8.72,362.666693 C10.8404927,360.29924 13.8428398,358.910202 17.02,358.826693 C17.2822129,358.808973 17.5408617,358.895189 17.74,359.066693 C21.1234709,361.618383 24.9180743,363.573179 28.96,364.846693 C33.1075184,366.245315 37.4148087,367.115509 41.78,367.436693 C58.91,368.766693 297.78,373.596693 299.55,373.596693 C301.32,373.596693 540.18,368.766693 557.31,367.436693 C562.154471,367.086684 566.925069,366.053111 571.48,364.366693 C575.029054,363.124892 578.362514,361.3367 581.36,359.066693 C581.559138,358.895189 581.817787,358.808973 582.08,358.826693 C585.251529,358.909752 588.247849,360.29935 590.36,362.666693 C593.24,365.976693 594.42,371.306693 593.89,378.496693 L593.89,378.496693 C593.300822,385.993991 587.530381,392.048361 580.07,392.996693 C558.14,395.766693 516.07,400.556693 481.07,401.446693 C432.95,402.676693 351.4,404.606693 311.33,404.606693 Z M301.03,402.556693 C335.43,402.986693 428.29,400.786693 481.03,399.436693 C515.98,398.546693 557.93,393.766693 579.82,390.996693 C586.30724,390.146533 591.31291,384.869722 591.82,378.346693 L591.82,378.346693 C592.31,371.806693 591.26,366.836693 588.82,363.976693 C587.142601,362.111268 584.794814,360.985913 582.29,360.846693 C579.197979,363.139408 575.780085,364.956217 572.15,366.236693 C567.42176,367.988825 562.469296,369.062813 557.44,369.426693 C540.29,370.756693 301.3,375.596693 299.52,375.596693 C297.74,375.596693 58.74,370.756693 41.59,369.426693 C37.0611952,369.09282 32.592591,368.18902 28.29,366.736693 C24.1453143,365.414522 20.2440795,363.425061 16.74,360.846693 C14.2322253,360.991092 11.8839944,362.123853 10.21,363.996693 C7.73,366.866693 6.68,371.836693 7.21,378.366693 C7.72608944,384.881989 12.7296075,390.148192 19.21,390.996693 C41.11,393.766693 83.06,398.546693 118,399.436693 C170.75,400.796693 263.61,402.986693 298,402.556693 C298.092707,402.541397 298.187293,402.541397 298.28,402.556693 L300.74,402.556693 C300.836031,402.541016 300.933969,402.541016 301.03,402.556693 Z" id="Shape" fill="#FFFFFF"></path>
                <path d="M299.52,126.826693 C357.36,127.436693 486.59,137.286693 486.59,137.286693 C486.59,137.286693 510.59,139.126693 506.29,121.896693 C501.99,104.666693 483.52,42.5166926 483.52,42.5166926 C483.52,42.5166926 481.67,26.5166926 443.52,22.2066926 C405.37,17.8966926 333.36,11.7466926 300.13,12.3566926 C266.9,11.7466926 194.9,17.8966926 156.75,22.2066926 C118.6,26.5166926 116.75,42.5166926 116.75,42.5166926 C116.75,42.5166926 98.29,104.666693 93.98,121.896693 C89.67,139.126693 113.67,137.286693 113.67,137.286693 C113.67,137.286693 242.9,127.436693 300.75,126.826693 L299.52,126.826693 Z" id="Path" fill="#000000"></path>
                <path d="M111.69,139.346693 C107.58,139.346693 98.61,138.696693 94.11,133.346693 C91.52,130.276693 90.82,126.246693 92.04,121.346693 C96.21,104.636693 113.85,45.1666926 114.79,41.9966926 C115.16,39.8966926 119.14,24.3666926 156.52,20.1466926 C194.94,15.8866926 267.21,9.74669265 300.21,10.3566926 C333.13,9.73669265 405.37,15.8866926 443.78,20.2166926 C481.17,24.4366926 485.14,39.9666926 485.51,42.0666926 C486.45,45.2366926 504.09,104.706693 508.27,121.416693 C509.48,126.276693 508.79,130.306693 506.19,133.416693 C500.38,140.306693 487.05,139.356693 486.48,139.316693 C485.2,139.216693 357.61,129.546693 300.17,128.866693 C242.74,129.546693 115.17,139.216693 113.86,139.316693 C113.69,139.286693 112.91,139.346693 111.69,139.346693 Z M295.33,14.3466926 C260.63,14.3466926 193.5,20.0966926 156.97,24.2266926 C121.26,28.2266926 118.75,42.6566926 118.73,42.8066926 L118.66,43.1166926 C118.48,43.7366926 100.17,105.426693 95.92,122.416693 C95.02,126.016693 95.43,128.766693 97.17,130.826693 C100.91,135.256693 110.24,135.566693 113.52,135.316693 C114.8,135.216693 241.69,125.596693 299.52,124.866693 L300.75,124.866693 C358.58,125.596693 485.46,135.216693 486.75,135.316693 C486.86,135.316693 498.61,136.146693 503.1,130.816693 C504.84,128.756693 505.24,126.006693 504.35,122.416693 C500.1,105.416693 481.78,43.7366926 481.6,43.1166926 L481.53,42.7766926 C481.53,42.6566926 479,28.2566926 443.29,24.2266926 C404.98,19.8666926 333,13.7566926 300.21,14.3566926 C298.64,14.3266926 297.02,14.3156642 295.33,14.3156642 L295.33,14.3466926 Z" id="Shape" fill="#000000"></path>
                <path d="M506.8,155.336693 C472.42,151.166693 438,147.426693 403.55,144.336693 C386.32,142.876693 369.09,141.486693 351.83,140.496693 C334.57,139.506693 317.34,138.886693 300.06,138.866693 C282.78,138.846693 265.56,139.386693 248.32,140.356693 C231.08,141.326693 213.83,142.676693 196.6,144.156693 C179.37,145.636693 162.16,147.426693 144.96,149.346693 C136.36,150.266693 127.76,151.276693 119.17,152.296693 L106.28,153.856693 L99.83,154.656693 L96.61,155.076693 L95,155.286693 L94.2,155.406693 L93.8,155.456693 L93.6,155.456693 L93.5,155.456693 C93.5,155.456693 93.4,155.456693 93.5,155.456693 C93.6,155.456693 93.5,155.456693 93.5,155.456693 L93.6,155.456693 L93.79,155.456693 L94.19,155.376693 L94.99,155.216693 L96.58,154.906693 L99.77,154.306693 L106.21,153.096693 L119.02,150.896693 C127.57,149.476693 136.13,148.166693 144.7,146.896693 C161.85,144.406693 179.03,142.156693 196.26,140.266693 C230.72,136.486693 265.35,133.786693 300.14,133.866693 C317.5,133.976693 334.87,134.646693 352.14,135.776693 C369.41,136.906693 386.72,138.536693 403.95,140.456693 C438.39,144.296693 472.72,149.126693 506.8,155.336693 Z" id="Path" fill="#000000"></path>
                <circle id="Oval" fill="#FFFFFF" cx="67.85" cy="235.356693" r="42.44"></circle>
                <path d="M67.85,280.796693 C42.754181,280.796693 22.41,260.452512 22.41,235.356693 C22.41,210.260874 42.754181,189.916693 67.85,189.916693 C92.945819,189.916693 113.29,210.260874 113.29,235.356693 C113.262444,260.441089 92.934396,280.769136 67.85,280.796693 Z M67.85,195.926693 C51.8970992,195.926693 37.5152117,205.537023 31.4112355,220.275969 C25.3072593,235.014914 28.6834115,251.979546 39.965246,263.25852 C51.2470806,274.537494 68.2125676,277.909344 82.949965,271.801631 C97.6873623,265.693917 107.294045,251.309593 107.290001,235.356693 C107.256946,213.589908 89.6167922,195.954227 67.85,195.926693 L67.85,195.926693 Z" id="Shape" fill="#000000"></path>
                <circle id="Oval" fill="#FFFFFF" cx="67.85" cy="235.356693" r="35.69"></circle>
                <path d="M67.85,272.556694 C52.8030951,272.560738 39.2355565,263.499813 33.4745523,249.599447 C27.7135482,235.69908 30.8937535,219.697057 41.532092,209.055858 C52.1704305,198.414659 68.171598,195.230152 82.073513,200.987418 C95.9754281,206.744685 105.04,220.309787 105.04,235.356693 C105.017965,255.888648 88.3819486,272.529137 67.85,272.556694 L67.85,272.556694 Z M67.85,201.166691 C54.015572,201.162648 41.5413098,209.493728 36.2452349,222.274299 C30.94916,235.054871 33.8745313,249.767325 43.6569495,259.549743 C53.4393678,269.332161 68.1518221,272.257533 80.9323934,266.961458 C93.7129648,261.665383 102.044045,249.191121 102.040001,235.356693 C102.017958,216.483215 86.7234779,201.188735 67.85,201.166691 L67.85,201.166691 Z" id="Shape" fill="#000000"></path>
                <circle id="Oval" fill="#FFFFFF" cx="65.85" cy="324.596693" r="15.3"></circle>
                <path d="M65.85,341.896739 C56.2952072,341.869092 48.5698145,334.104932 48.590002,324.55012 C48.6102688,314.995309 56.368465,307.263927 65.923289,307.276765 C75.478113,307.289634 83.21548,315.041862 83.2100029,324.596693 C83.2047039,329.193715 81.3720914,333.600055 78.1158817,336.845011 C74.8596719,340.089966 70.4470127,341.907312 65.85,341.896739 Z M65.85,311.286632 C58.5056619,311.314282 52.5716657,317.285534 52.5899991,324.629901 C52.6084176,331.974268 58.5722199,337.91575 65.9166041,337.906599 C73.2609883,337.897426 79.21,331.941083 79.21,324.596693 C79.2073599,321.058801 77.7973454,317.667303 75.2909917,315.170329 C72.7846381,312.673355 69.3878769,311.276067 65.85,311.286632 L65.85,311.286632 Z" id="Shape" fill="#000000"></path>
                <circle id="Oval" fill="#FFFFFF" cx="65.85" cy="324.596693" r="11.31"></circle>
                <path d="M65.85,336.396693 C61.0723912,336.396693 56.7654054,333.518194 54.9380293,329.103871 C53.1106532,324.689549 54.1229008,319.609074 57.5026109,316.232225 C60.882321,312.855377 65.9636519,311.847433 70.3764247,313.678548 C74.7891975,315.509663 77.6640454,319.819086 77.6600043,324.596693 C77.6489764,331.112985 72.366299,336.391189 65.85,336.396693 Z M65.85,313.786693 C59.8798019,313.786693 55.04,318.626494 55.04,324.596693 C55.04,330.566891 59.8798019,335.406693 65.85,335.406693 C71.8201981,335.406693 76.66,330.566891 76.66,324.596693 C76.6544869,318.62878 71.8179131,313.792206 65.85,313.786693 L65.85,313.786693 Z" id="Shape" fill="#000000"></path>
                <circle id="Oval" fill="#FFFFFF" cx="535.08" cy="324.596693" r="15.3"></circle>
                <path d="M535.08,341.896693 C528.077849,341.896693 521.765363,337.678163 519.086691,331.208631 C516.408019,324.7391 517.890823,317.292976 522.843522,312.343138 C527.796221,307.3933 535.2432,305.9148 541.711182,308.59721 C548.179165,311.27962 552.394045,317.594543 552.390003,324.596693 C552.378969,334.15055 544.633862,341.891183 535.08,341.896693 Z M535.08,311.286693 C527.72909,311.286693 521.77,317.245783 521.77,324.596693 C521.77,331.947603 527.72909,337.906693 535.08,337.906693 C542.43091,337.906693 548.39,331.947603 548.39,324.596693 C548.384485,317.248068 542.428624,311.292208 535.08,311.286693 L535.08,311.286693 Z" id="Shape" fill="#000000"></path>
                <circle id="Oval" fill="#FFFFFF" cx="535.08" cy="324.596693" r="11.31"></circle>
                <path d="M535.08,336.396693 C530.302391,336.396693 525.995405,333.518194 524.168029,329.103871 C522.340653,324.689549 523.352901,319.609074 526.732611,316.232225 C530.112321,312.855377 535.193652,311.847433 539.606425,313.678548 C544.019198,315.509663 546.894045,319.819086 546.890004,324.596693 C546.88448,331.11527 541.59858,336.396693 535.08,336.396693 Z M535.08,313.786693 C529.109802,313.786693 524.27,318.626494 524.27,324.596693 C524.27,330.566891 529.109802,335.406693 535.08,335.406693 C541.050198,335.406693 545.89,330.566891 545.89,324.596693 C545.884487,318.62878 541.047913,313.792206 535.08,313.786693 L535.08,313.786693 Z" id="Shape" fill="#000000"></path>
                <circle id="Oval" fill="#FFFFFF" cx="535.08" cy="235.356693" r="42.44"></circle>
                <path d="M535.08,280.796693 C516.701236,280.796693 500.132163,269.725592 493.098914,252.745828 C486.065665,235.766064 489.953319,216.221509 502.949068,203.225761 C515.944817,190.230012 535.489371,186.342358 552.469135,193.375607 C569.448899,200.408855 580.52,216.977928 580.52,235.356693 C580.497946,260.443371 560.166678,280.774638 535.08,280.796693 Z M535.08,195.926693 C519.127099,195.926693 504.745212,205.537023 498.641236,220.275969 C492.537259,235.014914 495.913411,251.979546 507.195246,263.25852 C518.477081,274.537494 535.442568,277.909344 550.179965,271.801631 C564.917362,265.693917 574.524045,251.309593 574.520001,235.356693 C574.492441,213.587627 556.849072,195.948731 535.08,195.926693 L535.08,195.926693 Z" id="Shape" fill="#000000"></path>
                <rect id="Rectangle" stroke="#979797" fill="url(#radialGradient-2)" x="124.21" y="338.896693" width="24" height="89.54" rx="11.6400003"></rect>
                <rect id="Rectangle" stroke="#979797" fill="url(#radialGradient-2)" transform="translate(468.210000, 382.666693) rotate(-1.000000) translate(-468.210000, -382.666693) " x="456.21" y="337.896693" width="24" height="89.54" rx="11.6400003"></rect>
                <path d="M136.57,429.436693 L135.85,429.436693 C128.871406,429.431178 123.215514,423.775286 123.21,416.796693 L123.21,350.536693 C123.215514,343.558099 128.871406,337.902207 135.85,337.896693 L136.57,337.896693 C143.548594,337.902207 149.204486,343.558099 149.21,350.536693 L149.21,416.796693 C149.204486,423.775286 143.548594,429.431178 136.57,429.436693 L136.57,429.436693 Z M135.85,339.896693 C129.975975,339.902206 125.215513,344.662668 125.21,350.536693 L125.21,416.796693 C125.215513,422.670717 129.975975,427.43118 135.85,427.436693 L136.57,427.436693 C142.444025,427.43118 147.204487,422.670717 147.21,416.796693 L147.21,350.536693 C147.204487,344.662668 142.444025,339.902206 136.57,339.896693 L135.85,339.896693 Z" id="Shape" fill="#FFFFFF"></path>
                <path d="M468.26,429.436693 L467.54,429.436693 C460.561406,429.431178 454.905514,423.775286 454.9,416.796693 L454.9,350.536693 C454.905514,343.558099 460.561406,337.902207 467.54,337.896693 L468.26,337.896693 C475.238594,337.902207 480.894486,343.558099 480.9,350.536693 L480.9,416.796693 C480.894486,423.775286 475.238594,429.431178 468.26,429.436693 L468.26,429.436693 Z M467.54,339.896693 C461.665975,339.902206 456.905513,344.662668 456.9,350.536693 L456.9,416.796693 C456.905513,422.670717 461.665975,427.43118 467.54,427.436693 L468.26,427.436693 C474.134025,427.43118 478.894487,422.670717 478.9,416.796693 L478.9,350.536693 C478.894487,344.662668 474.134025,339.902206 468.26,339.896693 L467.54,339.896693 Z" id="Shape" fill="#FFFFFF"></path>
                <path d="M121.47,157.586693 C123.2,163.676693 124.58,169.806693 125.83,175.956693 C127.08,182.106693 128.21,188.276693 129.21,194.466693 C130.21,200.656693 131.1,206.856693 131.89,213.076693 C132.68,219.296693 133.35,225.536693 133.77,231.846693 C131.764165,225.864791 130.094885,219.775258 128.77,213.606693 C127.436667,207.473359 126.256667,201.306693 125.23,195.106693 C124.203333,188.906693 123.366667,182.683359 122.72,176.436693 C122.09,170.186693 121.57,163.916693 121.47,157.586693 Z" id="Path" fill="#000000"></path>
                <path d="M480.21,157.586693 C480.11,163.916693 479.59,170.186693 478.92,176.436693 C478.25,182.686693 477.42,188.906693 476.41,195.106693 C475.4,201.306693 474.23,207.476693 472.86,213.606693 C471.539752,219.77639 469.870401,225.866182 467.86,231.846693 C468.29,225.536693 468.96,219.296693 469.75,213.076693 C470.54,206.856693 471.41,200.646693 472.42,194.466693 C473.43,188.286693 474.56,182.106693 475.8,175.956693 C477.04,169.806693 478.47,163.676693 480.21,157.586693 Z" id="Path" fill="#000000"></path>
                <ellipse id="Oval" fill="#FFFFFF" cx="301.75" cy="211.286693" rx="18.46" ry="8"></ellipse>
                <path d="M301.75,221.286693 C290.08,221.286693 281.29,216.986693 281.29,211.286693 C281.29,205.586693 290.08,201.286693 301.75,201.286693 C313.42,201.286693 322.21,205.586693 322.21,211.286693 C322.21,216.986693 313.41,221.286693 301.75,221.286693 Z M301.75,205.286693 C291.7,205.286693 285.29,208.836693 285.29,211.286693 C285.29,213.736693 291.7,217.286693 301.75,217.286693 C311.8,217.286693 318.21,213.726693 318.21,211.286693 C318.21,208.846693 311.8,205.286693 301.75,205.286693 Z" id="Shape" fill="#000000"></path>
                <path d="M124.08,269.876693 C153.17,267.236693 182.29,265.376693 211.44,263.876693 C226.01,263.066693 240.59,262.526693 255.17,261.926693 C269.75,261.326693 284.35,261.046693 299,260.926693 C328.31,261.066693 357.42,262.336693 386.58,263.826693 C415.74,265.316693 444.85,267.236693 473.93,269.916693 C444.73,270.156693 415.55,269.786693 386.39,269.286693 C371.81,269.096693 357.24,268.696693 342.66,268.486693 C328.08,268.276693 313.52,267.826693 299.02,267.926693 C284.52,268.026693 269.92,268.286693 255.35,268.556693 C240.78,268.826693 226.21,269.166693 211.62,269.336693 C182.46,269.786693 153.29,270.126693 124.08,269.876693 Z" id="Path" fill="#000000"></path>
                <path d="M117.74,281.996693 C147.89,279.386693 178.07,277.566693 208.27,276.066693 C223.37,275.266693 238.48,274.736693 253.59,274.146693 C268.7,273.556693 283.82,273.266693 299,273.146693 C329.36,273.266693 359.53,274.536693 389.75,276.006693 C419.97,277.476693 450.13,279.376693 480.28,282.006693 C450.02,282.276693 419.79,281.936693 389.57,281.446693 C374.46,281.276693 359.35,280.886693 344.25,280.676693 C329.15,280.466693 314.05,280.016693 299.02,280.116693 C283.99,280.216693 268.86,280.496693 253.76,280.766693 C238.66,281.036693 223.56,281.366693 208.45,281.516693 C178.21,281.996693 148,282.306693 117.74,281.996693 Z" id="Path" fill="#000000"></path>
                <path d="M109.62,294.316693 C141.14,291.926693 172.69,290.316693 204.25,288.966693 C220.03,288.256693 235.82,287.806693 251.61,287.286693 C267.4,286.766693 283.19,286.526693 299.03,286.396693 C330.76,286.606693 362.27,288.066693 393.84,289.706693 C425.41,291.346693 456.91,293.446693 488.39,296.286693 C456.78,296.356693 425.2,295.836693 393.63,295.166693 C377.85,294.906693 362.07,294.426693 346.29,294.166693 C330.51,293.906693 314.74,293.356693 299.04,293.416693 C283.34,293.476693 267.52,293.716693 251.74,293.916693 C235.96,294.116693 220.18,294.366693 204.39,294.436693 C172.81,294.696693 141.21,294.816693 109.62,294.316693 Z" id="Path" fill="#000000"></path>
                <path d="M104.75,306.106693 C137.08,303.716693 169.44,302.106693 201.75,300.776693 C217.94,300.056693 234.13,299.606693 250.32,299.086693 C266.51,298.566693 282.7,298.326693 298.95,298.186693 C307.08,298.186693 315.2,298.326693 323.3,298.466693 C331.4,298.606693 339.5,298.776693 347.6,299.016693 L371.88,299.796693 L384.03,300.216693 L396.16,300.716693 C428.53,302.046693 460.89,303.716693 493.16,306.106693 C460.75,306.606693 428.36,306.476693 395.98,306.176693 C379.78,306.096693 363.6,305.786693 347.41,305.646693 C331.22,305.506693 315.04,305.106693 298.91,305.176693 C282.78,305.246693 266.58,305.486693 250.4,305.696693 C234.22,305.906693 218.03,306.146693 201.84,306.216693 C169.55,306.506693 137.21,306.616693 104.75,306.106693 Z" id="Path" fill="#000000"></path>
                <path d="M100.29,315.116693 C133.39,313.306693 166.51,312.186693 199.64,311.306693 C216.2,310.796693 232.77,310.546693 249.33,310.176693 L299.03,309.436693 C332.25,309.546693 365.33,310.656693 398.45,311.946693 C431.57,313.236693 464.66,314.946693 497.73,317.326693 C464.57,317.836693 431.44,317.716693 398.32,317.416693 C381.76,317.336693 365.2,317.016693 348.64,316.876693 C332.08,316.736693 315.53,316.316693 299.03,316.436693 L249.35,316.786693 C232.8,316.786693 216.24,316.886693 199.68,316.786693 C166.56,316.596693 133.43,316.196693 100.29,315.116693 Z" id="Path" fill="#000000"></path>
                <path d="M104.75,325.586693 C137.12,324.026693 169.49,323.146693 201.87,322.526693 C218.06,322.146693 234.25,322.016693 250.44,321.766693 L299.01,321.406693 L347.58,321.756693 C363.76,322.006693 379.95,322.126693 396.14,322.516693 C428.52,323.146693 460.9,324.036693 493.26,325.606693 C460.88,326.946693 428.5,327.606693 396.13,327.976693 C379.94,328.246693 363.75,328.246693 347.57,328.376693 L299.01,328.376693 L250.45,328.376693 C234.26,328.246693 218.07,328.226693 201.88,327.966693 C169.51,327.566693 137.13,326.916693 104.75,325.586693 Z" id="Path" fill="#000000"></path>
                <path d="M109.62,335.586693 C141.21,334.836693 172.79,334.726693 204.36,334.816693 C220.14,334.816693 235.92,334.996693 251.7,335.056693 C267.48,335.116693 283.26,335.406693 299,335.396693 L346.34,335.096693 C362.11,335.096693 377.89,335.026693 393.68,335.176693 C425.24,335.356693 456.81,335.776693 488.39,336.896693 C456.85,338.696693 425.28,339.786693 393.71,340.636693 C377.93,341.136693 362.14,341.366693 346.36,341.726693 C330.58,342.086693 314.79,342.226693 298.99,342.386693 C283.17,342.266693 267.373333,342.026693 251.6,341.666693 C235.81,341.226693 220.03,340.876693 204.25,340.256693 C172.7,339.146693 141.15,337.736693 109.62,335.586693 Z" id="Path" fill="#000000"></path>
                <path d="M301.36,122.906693 C337.75,123.296693 419.04,129.486693 419.04,129.486693 C419.04,129.486693 434.13,130.656693 431.42,119.816693 C428.71,108.976693 417.1,69.8766926 417.1,69.8766926 C417.1,69.8766926 415.94,59.8166926 391.94,57.1066926 C367.94,54.3966926 322.65,50.5266926 301.75,50.9166926 C280.85,50.5266926 235.56,54.3966926 211.56,57.1066926 C187.56,59.8166926 186.4,69.8766926 186.4,69.8766926 C186.4,69.8766926 174.78,108.976693 172.07,119.816693 C169.36,130.656693 184.46,129.486693 184.46,129.486693 C184.46,129.486693 265.75,123.296693 302.14,122.906693 L301.36,122.906693 Z" id="Path" fill="#FFFFFF"></path>
                <path d="M183.1,131.536693 C180.33,131.536693 174.6,131.076693 171.59,127.536693 C170.36,126.076693 169.1,123.476693 170.13,119.356693 C172.75,108.876693 183.78,71.7066926 184.45,69.4466926 C184.78,67.7366926 187.74,57.8166926 211.33,55.1466926 C235.52,52.4166926 280.99,48.5566926 301.79,48.9466926 C322.5,48.5566926 367.98,52.4166926 392.16,55.1466926 C415.76,57.8166926 418.71,67.7366926 419.05,69.4466926 C419.72,71.7066926 430.74,108.876693 433.36,119.356693 C434.36,123.476693 433.14,126.076693 431.91,127.536693 C428.07,132.076693 419.81,131.536693 418.91,131.536693 C418.01,131.536693 337.91,125.386693 301.78,124.966693 C265.67,125.386693 185.45,131.476693 184.64,131.536693 C184.41,131.496693 183.87,131.536693 183.1,131.536693 Z M302.1,120.916693 C338.49,121.376693 418.34,127.436693 419.15,127.496693 C421.15,127.636693 426.67,127.496693 428.81,124.926693 C429.74,123.826693 429.95,122.316693 429.44,120.296693 C426.78,109.626693 415.26,70.8366926 415.14,70.4466926 L415.07,70.1066926 C415.07,70.1066926 413.4,61.5466926 391.68,59.1066926 C367.6,56.3866926 322.37,52.5466926 301.75,52.9266926 C281.06,52.5366926 235.82,56.3866926 211.75,59.1066926 C190.03,61.5566926 188.36,70.1066926 188.35,70.1666926 L188.28,70.4566926 C188.17,70.8466926 176.65,109.636693 173.98,120.306693 C173.48,122.306693 173.69,123.836693 174.61,124.936693 C176.75,127.476693 182.32,127.656693 184.28,127.506693 C185.09,127.446693 264.94,121.386693 301.28,120.926693 L302.06,120.926693 L302.1,120.916693 Z" id="Shape" fill="#000000"></path>
                <circle id="Oval" fill="#FFFFFF" cx="535.2" cy="235.356693" r="35.69"></circle>
                <path d="M535.21,272.556694 C520.163095,272.560738 506.595556,263.499813 500.834552,249.599447 C495.073548,235.69908 498.253753,219.697057 508.892092,209.055858 C519.53043,198.414659 535.531598,195.230152 549.433513,200.987418 C563.335428,206.744685 572.4,220.309787 572.4,235.356693 C572.377965,255.888648 555.741949,272.529137 535.21,272.556694 Z M535.21,201.166691 C521.375572,201.162648 508.90131,209.493728 503.605235,222.274299 C498.30916,235.054871 501.234531,249.767325 511.01695,259.549743 C520.799368,269.332161 535.511822,272.257533 548.292393,266.961458 C561.072965,261.665383 569.404045,249.191121 569.400001,235.356693 C569.377958,216.483215 554.083478,201.188735 535.21,201.166691 L535.21,201.166691 Z" id="Shape" fill="#000000"></path>
            </g>
        </g>
    </g>
</svg>