<?xml version='1.0' encoding='utf-8'?>
<svg xmlns="http://www.w3.org/2000/svg" enable-background="new 0 0 35.2 43.8" version="1.1" viewBox="0 0 35.2 43.8">
	<g clip-rule="evenodd" fill-rule="evenodd">
		<path d="m29.25 16c0 0.9 0.116 3.167 0.35 6.8 0.233 4.101 0.45 6.7 0.65 7.8 0.233 1.434 0.366 3.284 0.4 5.551 0.033 2.466-0.101 3.899-0.4 4.3-0.066 0.1-0.25 0.583-0.55 1.45-0.2 0.6-0.55 1.033-1.05 1.3-0.601 0.3-4.367 0.416-11.301 0.35-6.866-0.066-10.899-0.233-12.1-0.5-0.967-0.2-1.483-1.066-1.55-2.6 0-0.033 0.1-1.434 0.3-4.2l0.901-11.251c0.333-1.733 0.5-4.783 0.5-9.15 0-0.367 0.417-0.783 1.25-1.25 0.433-0.233 0.85-0.433 1.25-0.6l-2.05-0.5 0.2-3.7 7.65 0.2c3.733 0 8.767 0.05 15.1 0.15l0.4 3.2-0.95 0.8 0.5 0.5c0.333 0.433 0.5 0.883 0.5 1.35z" fill="#A3793A"/>
		<path d="m25.45 35.9l0.2 0.399 1.449 4.5c0.334 0.867 0.517 1.384 0.551 1.55 0.166 0.534 0.149 0.867-0.051 1-0.166 0.134-0.916 0.217-2.25 0.25h-3.35c-0.634 0.034-1.833 0-3.6-0.1-2-0.1-3.25-0.15-3.75-0.15-4.2 0-6.883-0.1-8.05-0.3-0.967-0.2-1.45-0.583-1.45-1.149l0.3-0.851 0.4 0.45c0.4 0.3 0.983 0.45 1.75 0.45 0.8 0 2.667-0.134 5.6-0.4 0.633-0.066 1.066-0.316 1.3-0.75 0.2-0.434 0.383-0.649 0.55-0.649 0.233-0.034 0.617 0.033 1.15 0.199 0.633 0.2 1.267 0.317 1.899 0.351 0.7 0.033 1.267-0.05 1.7-0.25 0.267-0.101 0.8-0.351 1.601-0.75 0.699-0.233 1.1-0.667 1.199-1.3l-0.05-0.851 0.352 0.601c0.3 0.366 0.666 0.416 1.1 0.149 0.7-0.433 1.184-1.233 1.45-2.399z" fill="#8E6A33"/>
		<path d="m9.25 15c0.3 0 0.85 0.083 1.65 0.25 0.833 0.167 1.467 0.25 1.9 0.25 0.4 0 1.417-0.067 3.05-0.2 1.8-0.1 3.466-0.066 5 0.1 0.967 0.133 2.534 0.167 4.7 0.1-0.5 0.567-1.033 1.2-1.6 1.9-1.101 1.434-1.783 2.567-2.05 3.4-0.167 0.567-0.4 1.834-0.7 3.8-0.267 1.667-0.517 2.667-0.75 3-0.2 0.267-1.05 0.467-2.55 0.601-1.567 0.133-2.55 0.399-2.95 0.8-2.233 2.333-3.517 3.917-3.85 4.75-0.133 0.434-0.667 0.8-1.6 1.1-1.167 0.367-1.933 0.684-2.3 0.95-0.5 0.367-1.117 1.15-1.85 2.351l-0.95 1.648 0.3-1.85c0.033-0.167 0.066-0.934 0.1-2.3 0.034-1.301 0.15-2.267 0.35-2.9 0.2-0.566 0.3-1.366 0.3-2.4 0.033-1.233 0.083-2.083 0.15-2.55 0.133-0.666 0.217-2.233 0.25-4.7 0.066-2.733 0.1-4.167 0.1-4.3l0.2-3.4 3.1-0.4z" fill="#C79346"/>
		<path d="m23.3 23.2c0.2 2.233 0.283 3.616 0.25 4.149-0.033 0.667-0.05 1.801-0.05 3.4s0.017 2.483 0.05 2.65c0.033 0.133 0.566 0.333 1.601 0.6 0.533 0.1 1.05 0.2 1.55 0.3-1.233 0.2-2 0.467-2.3 0.8-0.2 0.2-0.267 0.967-0.2 2.301 0.066 0.666 0.133 1.3 0.2 1.899-2.301-0.3-4.467-0.333-6.5-0.1-1.067 0.133-2.384 0.133-3.95 0-1.434-0.167-2.3-0.25-2.6-0.25-0.333 0-1.1-0.184-2.3-0.55l-1.701-0.599 15.55-18.9 0.4 4.3z" fill="#694E26"/>
		<path d="m29.25 16c0 0.9 0.116 3.167 0.35 6.8 0.233 4.101 0.45 6.7 0.65 7.8 0.233 1.434 0.366 3.284 0.4 5.551 0.033 2.466-0.101 3.899-0.4 4.3-0.066 0.1-0.25 0.583-0.55 1.45-0.2 0.6-0.55 1.033-1.05 1.3-0.634 0.033-1.233-1.316-1.801-4.05-0.566-2.7-0.733-4.801-0.5-6.301 0.2-1.1 0.2-4.017 0-8.75-0.233-4.766-0.333-7.233-0.3-7.399 0.066-0.4 0.25-0.817 0.55-1.25 0.267-0.4 0.4-0.65 0.4-0.75 0-0.667 0.283-1.167 0.85-1.5 0.4-0.233 0.5-1.217 0.301-2.95l0.5-0.1h0.15l0.4 3.2-0.95 0.8 0.5 0.5c0.333 0.432 0.5 0.882 0.5 1.349z" fill="#7A5A2B"/>
		<polygon points="28.15 10.25 28.55 10.2 29.2 13.35 27.9 13.65 28.15 11.75" fill="#57401F"/>
		<path d="m9.15 14.35c-0.466 0-1.2 0.15-2.2 0.45l-1.3 0.4 0.6-1.05-0.4-0.65 3.15 0.1c2.3 0.066 3.9 0.066 4.8 0 1.467-0.133 5.134-0.167 11-0.1 1.467-0.067 2.75-0.033 3.851 0.1l-1.15 0.9c-3.233 0.1-5.684 0.133-7.35 0.1l-11.001-0.25z" fill="#7A5A2B"/>
		<path d="m28.05 43.15l-0.85 0.35h-10.2c-6.933 0-10.85-0.15-11.75-0.45-0.566-0.2-1.017-0.666-1.35-1.399l-0.3-1 1.1 0.899c0.833 0.634 1.533 0.983 2.1 1.05 1.4 0.134 3.034 0.167 4.9 0.101 1.1-0.033 2.633-0.117 4.6-0.25 1.033-0.066 2.066-0.283 3.101-0.65 1.1-0.366 1.883-0.566 2.35-0.6 1.167-0.134 2.55-0.134 4.15 0l2.149 1.949z" fill="#694E26"/>
		<path d="m21.9 10.9c-1.167 0.033-3.617 0.233-7.351 0.6l-5.299 0.5 6.65 0.45c1.034-0.067 4.8 0.017 11.3 0.25l-8.7 0.05c-1.467 0.067-3.867 0.1-7.2 0.1l-4.95 0.15v-2.95l3.55 0.2c2.633 0.1 4.667 0.15 6.1 0.15h9.25c0.9 0 1.667-0.033 2.3-0.1l0.2 0.35-5.85 0.25z" fill="#C79346"/>
		<polygon points="28.25 11.15 28.35 12.85 17.65 11.3" fill="#7A5A2B"/>
		<path d="m28.55 10.2l-1 0.5c-3.566-0.034-7.133-0.083-10.7-0.15-7.133-0.133-10.7-0.233-10.7-0.3l-0.1-0.45 22.5 0.4z" fill="#D69E4C"/>
		<path d="m26.25 15.6l0.1 3.4c0.233 1.533 0.351 2.833 0.351 3.9v9.1c0 0.134-0.033 1.333-0.101 3.6 0 2.267 0.067 3.667 0.2 4.2 0.2 0.834 0.816 1.967 1.851 3.4l-1.551-1.25c-0.267-0.2-0.5-0.65-0.699-1.351-0.067-0.199-0.217-0.916-0.45-2.149-0.167-0.767-0.25-1.967-0.25-3.601-0.033-1.699 0.05-2.816 0.25-3.35 0.166-0.467 0.184-2.2 0.05-5.2-0.167-3.1-0.25-4.883-0.25-5.35l0.499-5.349z" fill="#C28F44"/>
		<path d="m26.7 32l0.899 2.5c0.267 0.467 0.434 0.75 0.5 0.85 0.233 0.301 0.584 0.601 1.051 0.9 0.399 0.233 0.433-0.134 0.1-1.1-0.4-1.167-0.517-1.851-0.35-2.051 0.333-0.466 0.666-2.133 1-5l0.199 1.25c0.134 0.967 0.284 1.684 0.45 2.15 0.267 0.767 0.283 3.583 0.05 8.45 0 0.3-0.199 0.916-0.6 1.85-0.2 0.434-0.583 0.783-1.15 1.05-0.966-1.366-1.649-2.383-2.05-3.05-0.267-0.399-0.366-1.816-0.3-4.25l0.201-3.549z" fill="#57401F"/>
		<path d="m29.4 14.85c0.267 0.467 0.267 1.783 0 3.95l-1.351-1.05-0.25 3.2c-0.267-1.767-0.533-2.617-0.8-2.55-0.167 0.033-0.283 0.45-0.35 1.25-0.034 0.4-0.051 0.783-0.051 1.15-0.366-2-0.55-3.367-0.55-4.1 0-0.467 0.167-0.934 0.5-1.4 0.134-0.233 0.283-0.433 0.45-0.6l-7.25-0.8 5.35-0.05c1.134-0.067 1.867-0.184 2.2-0.35l1.9-0.15-0.25 0.7 0.452 0.8z" fill="#57401F"/>
	</g>
		<path d="m26.5 34.5c-5.733-0.233-9.366-0.35-10.9-0.35-0.967 0-3.15-0.117-6.55-0.351l-4.75-0.349 0.6-6.101 11.15 0.45c2.5 0.167 5.867 0.167 10.101 0l3.6-2.45 0.15 2.75c0.166 0.767 0.283 1.601 0.35 2.5-0.634 0.667-1.267 1.384-1.9 2.15-0.233 0.333-0.616 0.733-1.149 1.2l-0.702 0.551z" clip-rule="evenodd" fill="#295224" fill-rule="evenodd"/>
		<path d="m28.35 32.75c-0.466 0.566-1 1.083-1.6 1.55-0.066-1.333-0.083-2.1-0.05-2.3l-0.05-4.55 3.1-2.101 0.15 2.75c0.166 0.767 0.283 1.601 0.35 2.5-0.634 0.668-1.267 1.384-1.9 2.151z" clip-rule="evenodd" fill="#1A3317" fill-rule="evenodd"/>
		<path d="m26.35 33.55l-22.05-0.9 0.35-4.45 21.95 0.55 3.15-2.35 0.4 3.3c-0.567 0.866-1.2 1.566-1.9 2.1l-1.9 1.75z" clip-rule="evenodd" fill="#BAA436" fill-rule="evenodd"/>
		<path d="m10.45 38.6l-3.3-0.4c0.133-5.6 0.25-9.367 0.35-11.3l0.55-8.8h7.9c2.3 0 4.767 0.133 7.399 0.4l-0.05 3.95c-0.033 2.833-0.017 4.8 0.05 5.899 0.134 1.767 0.317 5.317 0.551 10.65-3.334-0.267-5.983-0.333-7.95-0.2-1.233 0.101-3.067 0.034-5.5-0.199z" clip-rule="evenodd" fill="#295224" fill-rule="evenodd"/>
		<path d="m10.75 38.15l-3.1-0.4c0.1-5.366 0.2-8.967 0.3-10.8l0.5-8.45h7.5c2.166 0 4.483 0.133 6.95 0.4l-0.051 3.75c-0.033 2.699-0.017 4.583 0.051 5.649 0.133 1.733 0.3 5.15 0.5 10.25-3.134-0.267-5.617-0.333-7.45-0.2-1.167 0.101-2.9 0.035-5.2-0.199z" clip-rule="evenodd" fill="#D6C73E" fill-rule="evenodd"/>
		<path d="m9.4 19.25h6.6c1.9 0 3.934 0.117 6.1 0.35l-0.05 3.5c-0.033 2.534-0.017 4.284 0.05 5.25l0.45 9.5c-2.767-0.234-4.95-0.284-6.55-0.15-1.033 0.066-2.55 0-4.55-0.2l-2.75-0.35c0.1-5 0.2-8.35 0.3-10.05l0.4-7.85z" clip-rule="evenodd" fill="#F0C9A6" fill-rule="evenodd"/>
		<path d="m22.05 26.5l0.5 11.35c-2.767-0.234-4.95-0.284-6.55-0.15-1.033 0.066-2.55 0-4.55-0.2l-2.75-0.35 0.05-2.45c1.867-1.134 3.367-1.95 4.5-2.45 1.7-0.7 3.217-1.566 4.55-2.6l4.1-3.1 0.15-0.05z" clip-rule="evenodd" fill="#C9A98C" fill-rule="evenodd"/>
		<path d="m22.95 28.65l3.649 0.1-0.25 4.8-3.05-0.1c-0.133-0.634-0.2-1.066-0.2-1.3l-0.149-3.5z" clip-rule="evenodd" fill="#BAA436" fill-rule="evenodd"/>
			<path d="m19.4 29.9c0.166 0.399 0.199 0.833 0.1 1.3-0.134 0.533-0.45 1-0.95 1.399-0.567 0.401-1.484 0.601-2.75 0.601-1.233 0-2.017-0.167-2.35-0.5-1.067-1.066-1.483-1.967-1.25-2.7 0.1-0.833 0.233-1.434 0.4-1.8 0.333-0.667 1.05-1.101 2.15-1.3 1.1-0.2 2.1-0.117 3 0.25 0.434 0.166 0.767 0.366 1 0.6l0.65 2.15z" clip-rule="evenodd" fill="#7EB03E" fill-rule="evenodd"/>
			<path d="m19.4 31.3c-0.134 0.7-0.217 1.084-0.25 1.15-0.134 0.2-0.567 0.399-1.301 0.6-1 0.3-1.683 0.483-2.05 0.55-0.6 0.134-1.133 0.15-1.6 0.051-0.8-0.167-1.45-0.7-1.95-1.601-0.167-0.267-0.35-0.434-0.55-0.5l-0.3-0.05 1.4-0.2c0.2-0.066 0.417 0.134 0.65 0.601 0.233 0.5 0.633 0.733 1.2 0.699 0.7-0.033 1.317-0.449 1.85-1.25 0.5-0.733 0.667-1.316 0.5-1.75-0.333-0.8-0.233-1.399 0.3-1.8 0.267-0.166 0.566-0.267 0.9-0.3v0.15c0.033 0.166 0.233 0.35 0.6 0.55 0.635 0.333 0.835 1.366 0.601 3.1z" clip-rule="evenodd" fill="#60872C" fill-rule="evenodd"/>
			<path d="m16.3 27c1.134-0.134 0.917 0.384-0.65 1.55-0.066 0.2-0.066 0.584 0 1.15 0.034 0.434-0.083 0.733-0.35 0.899-0.233 0.134-0.417 0-0.55-0.399-0.167-0.5-0.467-0.767-0.9-0.8-0.5-0.034-0.833 0.183-1 0.649-0.1 0.233-0.15 0.467-0.15 0.7-0.034-0.233-0.05-0.517-0.05-0.85 0-0.7 0.15-1.301 0.45-1.801 0.267-0.5 0.883-0.833 1.85-1 0.467-0.065 0.917-0.098 1.35-0.098z" clip-rule="evenodd" fill="#97D245" fill-rule="evenodd"/>
			<path d="m17.1 27.5c0.2 0.233 0.117 0.583-0.25 1.05-0.187 0.24-0.253 0.456-0.2 0.65-0.167-0.222-0.25-0.438-0.25-0.65 0-0.2 0.117-0.434 0.35-0.7l0.35-0.35z" clip-rule="evenodd" fill="#97D245" fill-rule="evenodd"/>
			<path d="m16.65 27.05l-0.6 1.55c-0.167 0.467-0.083 0.867 0.25 1.2l-1.2 0.2c0-0.2 0.017-0.434 0.05-0.7 0.067-0.533 0.2-0.899 0.4-1.1l1.1-1.15z" clip-rule="evenodd" fill="#60872C" fill-rule="evenodd"/>
				<path d="m19.5 30.3c0.066-1.066-0.15-1.75-0.65-2.05l-0.1-0.5c-0.4-0.366-0.983-0.65-1.75-0.85 0.033-0.034 0-0.034-0.1 0-0.566-0.167-1.283-0.167-2.15 0-1.1 0.199-1.816 0.633-2.15 1.3-0.167 0.366-0.3 0.967-0.4 1.8-0.133 0.467-0.067 0.934 0.2 1.4l-0.9 0.1c0.267 0 0.517 0.184 0.75 0.55 0.5 0.9 1.15 1.434 1.95 1.601 0.466 0.1 1 0.083 1.6-0.051 0.367-0.066 1.05-0.25 2.05-0.55 0.667-0.2 1.084-0.383 1.25-0.55 0.101-0.1 0.184-0.384 0.25-0.85 0.167-0.4 0.216-0.85 0.15-1.35z" clip-rule="evenodd" fill="none" stroke="#231F20" stroke-miterlimit="10" stroke-width=".5"/>
		<g clip-rule="evenodd">
			<path d="m16.555 31.407c0.533 0.854 0.507 2.147-0.08 3.88-0.08 0.213-0.053 0.36 0.08 0.439l-1.48 0.32c-0.88 0.188-1.573 0.24-2.08 0.16-0.96-0.133-1.626-0.626-2-1.48-0.32-0.826-0.347-1.612-0.08-2.358 0.346-0.694 0.546-1.174 0.6-1.441 0.319-0.453 0.213-0.786-0.32-1-0.32-0.105-0.707-0.119-1.16-0.039l-0.56 0.199c-0.053-0.133-0.08-0.266-0.08-0.399 0.026-0.293 0.2-0.453 0.52-0.479 0.506-0.027 1.027 0.053 1.56 0.239-0.08-0.053-0.146-0.134-0.2-0.239-0.133-0.24-0.12-0.508 0.041-0.801 0.16-0.293 0.373-0.52 0.64-0.68 0.133-0.106 0.253-0.173 0.36-0.2l-0.16 0.44c-0.133 0.319-0.2 0.572-0.2 0.76 0.026 0.16 0.026 0.44 0 0.84 0.053 0.347 0.347 0.507 0.879 0.48 1.094-0.08 1.734-0.094 1.92-0.04 0.693 0.133 1.293 0.599 1.8 1.399z" fill="#E7B153" fill-rule="evenodd"/>
			<path d="m12.995 36.207c-0.96-0.133-1.626-0.626-2-1.48-0.4-0.986-0.333-1.999 0.2-3.039 0.08-0.087 0.153-0.18 0.22-0.28-0.108 0.637-0.088 1.25 0.06 1.84 0.133 0.561 0.227 0.987 0.28 1.28 0.027 0.027 0.466 0.293 1.32 0.8 0.454 0.267 0.88 0.32 1.28 0.16 0.187-0.106 0.573-0.413 1.16-0.92 0.613-0.507 0.959-1.066 1.04-1.68-0.053-0.16-0.08-0.333-0.08-0.52 0-0.374 0.094-0.574 0.28-0.601 0.213 0.56 0.24 1.28 0.08 2.159-0.08 0.454-0.2 0.907-0.36 1.36-0.08 0.213-0.053 0.36 0.08 0.439l-1.48 0.32c-0.88 0.189-1.573 0.242-2.08 0.162z" fill="#BF8C37" fill-rule="evenodd"/>
			<path d="m11.715 30.447l0.52 1.479c0.48 1.014 1.08 1.654 1.8 1.921 1.147 0.399 1.88 0.399 2.2 0-0.293 0.533-0.68 0.973-1.16 1.32-0.987 0.719-1.933 0.666-2.84-0.16-0.906-0.827-1.267-1.84-1.08-3.04l0.56-1.52z" fill="#D69C3E" fill-rule="evenodd"/>
			<path d="m15.415 35.427c-1.274 0.074-2.215-0.292-2.82-1.1-0.4-0.533-0.64-1.253-0.72-2.159l-0.04-1.2 0.2 1.159c0.267 0.907 0.681 1.613 1.24 2.12 0.849 0.778 1.562 1.172 2.14 1.18z" fill="#BF8C37" fill-rule="evenodd"/>
			<path d="m16.274 34.308c6e-3 -0.254-0.047-0.527-0.159-0.82-0.213-0.747-0.627-1.319-1.241-1.72-0.613-0.427-1.2-0.747-1.759-0.96l-0.681-0.2 1.16 0.2c0.827 0.187 1.44 0.427 1.84 0.72 0.621 0.439 0.9 1.366 0.84 2.78z" fill="#BF8C37" fill-rule="evenodd"/>
			<path d="m14.035 30.487c0.347 0.026 0.587 0.12 0.72 0.28l-0.34-0.141c0.66 0.29 1.041 0.684 1.14 1.181-0.32 0-0.546-0.014-0.68-0.04l0.081 0.2c-0.56-0.187-0.947-0.28-1.16-0.28-0.027 0.239 0 0.521 0.08 0.84l-0.64-0.08c-0.053 0.24-0.12 0.601-0.2 1.08-0.026-0.026-0.213-0.253-0.56-0.68-0.08 0.267-0.213 0.493-0.4 0.68l0.041-0.68c-0.16 0.16-0.294 0.387-0.4 0.68-0.054 0.187-0.134 0.453-0.241 0.8-0.053-0.293-0.04-0.653 0.041-1.08 0.08-0.426 0.187-0.773 0.319-1.039v0.119c0.213-0.133 0.387-0.307 0.521-0.52l0.08 0.439 0.16-0.68 0.32 0.28 0.08-0.601c0.107 0.16 0.24 0.24 0.4 0.24 0.133 0 0.213-0.106 0.24-0.319 0.026-0.16-0.027-0.28-0.16-0.36s-0.227-0.174-0.28-0.28c0.238-0.079 0.518-0.091 0.838-0.039z" fill="#FFD9A0" fill-rule="evenodd"/>
			<path d="m16.555 31.407c0.533 0.854 0.507 2.147-0.08 3.88-0.08 0.213-0.053 0.36 0.08 0.439l-1.48 0.32c-0.88 0.188-1.573 0.24-2.08 0.16-0.96-0.133-1.626-0.626-2-1.48-0.32-0.826-0.347-1.612-0.08-2.358 0.346-0.694 0.546-1.174 0.6-1.441 0.319-0.453 0.213-0.786-0.32-1-0.32-0.105-0.707-0.119-1.16-0.039l-0.56 0.199c-0.053-0.133-0.08-0.266-0.08-0.399 0.026-0.293 0.2-0.453 0.52-0.479 0.506-0.027 1.027 0.053 1.56 0.239-0.08-0.053-0.146-0.134-0.2-0.239-0.133-0.24-0.12-0.508 0.041-0.801 0.16-0.293 0.373-0.52 0.64-0.68 0.133-0.106 0.253-0.173 0.36-0.2l-0.16 0.44c-0.133 0.319-0.2 0.572-0.2 0.76 0.026 0.16 0.026 0.44 0 0.84 0.053 0.347 0.347 0.507 0.879 0.48 1.094-0.08 1.734-0.094 1.92-0.04 0.693 0.133 1.293 0.599 1.8 1.399z" fill="none" stroke="#231F20" stroke-miterlimit="10" stroke-width=".5"/>
		</g>
		<g clip-rule="evenodd">
			<g fill-rule="evenodd">
				<path d="m14.75 23.5c-0.167-0.6-0.183-1-0.05-1.2 0.167-0.233 0.683-0.5 1.55-0.8l0.25-0.45c0.267-0.367 0.733-0.633 1.4-0.8 0.633-0.167 1.166 0.05 1.6 0.65 0.233 0.3 0.384 0.617 0.45 0.95l0.7 0.15c0.466 0.167 0.633 0.5 0.5 1-0.101 0.434-0.517 0.717-1.25 0.85-0.834 0.167-1.351 0.367-1.551 0.601-0.233 0.267-0.566 0.434-1 0.5-0.433 0.066-0.683 0.217-0.75 0.45-0.1 0.333-0.383 0.517-0.85 0.55-0.4 0.033-0.816-0.05-1.25-0.25-0.3-0.134-0.333-0.483-0.1-1.05 0.268-0.668 0.384-1.051 0.351-1.151z" fill="#43853B"/>
				<path d="m16.725 21.875c9e-3 0.058 0.018 0.117 0.025 0.175v-0.2l-0.025 0.025zm-1.125 0.725l-0.15 0.1c0.167-0.066 0.417-0.167 0.75-0.3 0.223-0.128 0.398-0.303 0.525-0.525-0.093-1.156 0.465-1.448 1.675-0.875 1.267 0.633 1.166 1.184-0.301 1.65l-0.149-0.3c-0.101 0.301-0.367 0.534-0.8 0.7-0.034 0.033-0.067 0.25-0.101 0.65-0.033 0.233-0.216 0.25-0.55 0.05-0.066 0.2-0.3 0.467-0.7 0.8-0.433 0.367-0.75 0.483-0.95 0.351-0.233-0.134-0.2-0.4 0.1-0.801 0.167-0.199 0.383-0.433 0.65-0.699-0.167-0.101-0.35-0.351-0.55-0.75 0.201-0.101 0.385-0.118 0.551-0.051z" fill="#51A147"/>
				<path d="m16.75 26.95l0.4-0.5c0.366-0.367 0.816-0.617 1.35-0.75 0.8-0.267 1.4-0.3 1.8-0.101 0.867 5.767 1.217 8.717 1.05 8.851-0.133 0.166-1.666-2.334-4.6-7.5z" fill="#EB8321"/>
				<polygon points="17.25 24.5 18.5 23.8 18.95 25.7 17.65 25.95" fill="#43853B"/>
				<polygon points="18.5 25.7 19.45 25.55 20.3 25.6 21.35 34.45" fill="#A35A17"/>
			</g>
			<path d="m14.75 23.5c0.033 0.1-0.083 0.483-0.35 1.15-0.233 0.566-0.2 0.916 0.1 1.05 0.434 0.2 0.85 0.283 1.25 0.25 0.467-0.033 0.75-0.217 0.85-0.55 0.1-0.233 0.35-0.384 0.75-0.45l0.301 1 0.3-0.05c-0.367 0.166-0.667 0.399-0.9 0.699l-0.3 0.351c2.934 5.166 4.467 7.666 4.6 7.5 0.167-0.134-0.183-3.084-1.05-8.851-0.3-0.133-0.767-0.149-1.399-0.05l-0.301-1.3c0.134-0.066 0.634-0.2 1.5-0.4 0.634-0.166 0.983-0.449 1.051-0.85 0.133-0.5-0.034-0.833-0.5-1l-0.7-0.15c-0.066-0.333-0.217-0.65-0.45-0.95-0.434-0.6-0.967-0.816-1.6-0.65-0.667 0.167-1.134 0.433-1.4 0.8l-0.25 0.45c-0.867 0.3-1.383 0.566-1.55 0.8-0.135 0.201-0.119 0.601 0.048 1.201z" fill="none" stroke="#231F20" stroke-miterlimit="10" stroke-width=".5"/>
		</g>
	<path d="m26.3 28.9c0.134-0.301 0.75-0.801 1.851-1.5 0.566-0.367 1.1-0.7 1.6-1l0.4 3.3c-0.567 0.866-1.2 1.566-1.9 2.1-0.9 0.834-1.467 1.351-1.7 1.55-0.1-0.633-0.184-1.283-0.25-1.949-0.134-1.368-0.134-2.201-1e-3 -2.501z" clip-rule="evenodd" fill="#8C7B29" fill-rule="evenodd"/>
	<path d="m5.5 28.3v1.15c0.033 0.833 0.15 1.434 0.35 1.8 0.3 0.533 0.8 1.116 1.5 1.75l-3.05-0.35 0.35-4.45 0.85 0.1z" clip-rule="evenodd" fill="#91802A" fill-rule="evenodd"/>
</svg>