<?xml version='1.0' encoding='utf-8'?>
<svg xmlns="http://www.w3.org/2000/svg" enable-background="new 0 0 35.2 43.8" version="1.1" viewBox="0 0 35.2 43.8">
<g clip-rule="evenodd">
	<g fill-rule="evenodd">
		<path d="m32.591 0.389l0.582 4.147-1.229 1.102c0.862 0.561 1.295 1.339 1.295 2.332 0 1.08 0.151 4.017 0.453 8.812 0.303 5.313 0.563 8.682 0.777 10.107 0.346 1.814 0.54 4.211 0.583 7.191 0.043 3.153-0.129 5.012-0.518 5.572-0.087 0.13-0.323 0.778-0.713 1.943-0.259 0.735-0.713 1.274-1.36 1.62-0.777 0.39-5.658 0.54-14.644 0.454-8.898-0.086-14.124-0.303-15.679-0.647-1.253-0.26-1.922-1.36-2.008-3.305 0-0.044 0.129-1.879 0.388-5.507l1.167-14.514c0.432-2.246 0.647-6.22 0.647-11.922 0-0.475 0.541-1.015 1.62-1.62 0.562-0.303 1.102-0.562 1.62-0.778l-2.721-0.647 0.324-4.729c3.196 0.13 6.5 0.194 9.913 0.194 4.838 0 11.338 0.065 19.503 0.195z" fill="#A3793A"/>
		<path d="m24.557 35.895l0.453 0.842c0.388 0.476 0.864 0.519 1.426 0.131 0.863-0.563 1.489-1.599 1.878-3.111l0.26 0.584 1.879 5.767c0.475 1.296 0.713 1.986 0.713 2.073 0.216 0.69 0.194 1.123-0.065 1.295-0.216 0.174-1.188 0.26-2.915 0.26-2.635 0.043-4.082 0.064-4.341 0.064-0.821 0.043-2.376 0-4.666-0.129-2.461-0.13-4.082-0.195-4.859-0.195-5.27 0-8.747-0.15-10.431-0.452-1.253-0.217-1.879-0.713-1.879-1.491l0.389-1.101c0.216 0.776 1.145 1.165 2.786 1.165 1.036 0 3.455-0.172 7.256-0.518 0.821-0.086 1.382-0.389 1.685-0.907 0.302-0.562 0.541-0.864 0.713-0.907 0.302-0.043 0.799 0.043 1.49 0.26 0.778 0.259 1.577 0.409 2.398 0.453 0.949 0.044 1.705-0.065 2.268-0.324 1.339-0.604 2.029-0.906 2.072-0.906 0.907-0.303 1.427-0.864 1.556-1.686l-0.066-1.167z" fill="#8E6A33"/>
		<path d="m15.874 7.063c2.289-0.086 4.448-0.022 6.479 0.194 1.253 0.13 3.282 0.151 6.091 0.064-2.592 2.851-4.169 5.141-4.73 6.868-0.216 0.734-0.518 2.375-0.907 4.924-0.346 2.159-0.67 3.456-0.972 3.887-0.26 0.389-1.361 0.67-3.305 0.843-2.03 0.129-3.304 0.475-3.822 1.036-2.851 2.851-4.514 4.882-4.989 6.091-0.173 0.561-0.864 1.037-2.073 1.425-1.512 0.52-2.505 0.951-2.98 1.296-1.037 0.734-2.246 2.441-3.628 5.119 0.086-0.778 0.216-1.556 0.389-2.332 0.043-0.217 0.086-1.231 0.129-3.046 0.043-1.685 0.194-2.938 0.453-3.758 0.259-0.734 0.389-1.75 0.389-3.046 0.043-1.598 0.107-2.699 0.194-3.304 0.173-0.864 0.281-2.916 0.324-6.155 0.043-3.456 0.064-5.292 0.064-5.507l0.324-4.406c1.858-0.388 3.196-0.583 4.017-0.583 0.389 0 1.102 0.108 2.138 0.324 1.037 0.216 1.836 0.324 2.397 0.324s1.901-0.086 4.018-0.258z" fill="#C79346"/>
		<path d="m25.528 17.299c0.26 2.895 0.367 4.687 0.324 5.377-0.043 0.864-0.064 2.333-0.064 4.406s0.021 3.219 0.064 3.434c0.086 0.346 1.446 0.734 4.081 1.167-1.599 0.303-2.613 0.647-3.045 1.036-0.26 0.26-0.324 1.253-0.195 2.98 0.045 0.864 0.109 1.706 0.195 2.527-2.938-0.432-5.723-0.498-8.358-0.195-2.289 0.26-5.118 0.174-8.487-0.258-0.433 0-1.426-0.26-2.98-0.778l-2.203-0.777 20.15-24.492 0.518 5.573z" fill="#694E26"/>
		<path d="m31.813 0.583l0.648-0.195h0.13l0.582 4.147-1.229 1.102c0.862 0.561 1.295 1.339 1.295 2.332 0 1.08 0.151 4.017 0.453 8.812 0.303 5.313 0.563 8.682 0.777 10.107 0.346 1.814 0.54 4.211 0.583 7.191 0.043 3.153-0.129 5.012-0.518 5.572-0.087 0.13-0.323 0.778-0.713 1.943-0.259 0.735-0.713 1.274-1.36 1.62-0.82 0.087-1.599-1.642-2.333-5.184-0.733-3.498-0.95-6.22-0.647-8.163 0.259-1.425 0.259-5.205 0-11.339-0.303-6.22-0.432-9.438-0.389-9.654 0.086-0.562 0.324-1.102 0.713-1.62 0.345-0.518 0.519-0.821 0.519-0.907 0-0.907 0.367-1.555 1.101-1.944 0.518-0.343 0.647-1.617 0.388-3.82z" fill="#7A5A2B"/>
		<polygon points="31.813 0.583 32.331 0.454 33.173 4.536 31.488 4.924 31.813 2.462" fill="#57401F"/>
		<path d="m30.971 6.025c-4.189 0.173-7.364 0.216-9.524 0.13l-14.256-0.324c-0.993 0-2.505 0.389-4.535 1.167l0.778-1.36-0.583-0.909c5.054 0.217 8.509 0.26 10.367 0.13 1.9-0.13 6.652-0.173 14.254-0.13 1.901-0.043 3.563 0 4.989 0.13l-1.49 1.166z" fill="#7A5A2B"/>
		<path d="m20.474 41.467c1.426-0.475 2.441-0.756 3.046-0.843 1.512-0.129 3.305-0.129 5.377 0l2.787 2.527-1.103 0.454h-13.217c-8.984 0-14.06-0.195-15.226-0.583-1.209-0.388-1.922-1.405-2.138-3.045 1.512 1.555 2.873 2.376 4.082 2.462 1.814 0.217 3.953 0.281 6.415 0.195 1.425-0.088 3.412-0.217 5.961-0.39 1.338-0.086 2.677-0.346 4.016-0.777z" fill="#694E26"/>
		<path d="m31.295 1.037c-2.636 0.172-5.162 0.281-7.581 0.324-2.419 0.087-7.883 0.562-16.393 1.426 1.123 0.129 2.311 0.238 3.563 0.324 2.549 0.216 4.233 0.302 5.054 0.259 1.34-0.086 6.22 0.021 14.643 0.324-5.657 0-9.415 0.043-11.273 0.129l-15.745 0.324v-3.823c5.356 0.26 9.524 0.389 12.505 0.389l14.967-0.064 0.26 0.388z" fill="#C79346"/>
		<polygon points="31.943 1.685 32.072 3.888 18.206 1.944" fill="#7A5A2B"/>
		<path d="m3.304 0.518l-0.129-0.518 29.156 0.454-1.296 0.648c-4.621-0.043-9.243-0.108-13.865-0.194-9.244-0.174-13.866-0.303-13.866-0.39z" fill="#D69E4C"/>
		<path d="m29.352 7.451l0.129 4.406c0.259 1.685 0.389 3.369 0.389 5.054v11.792c0 0.215-0.021 1.771-0.064 4.665 0 2.937 0.086 4.752 0.259 5.442 0.26 1.079 1.059 2.549 2.397 4.405l-2.009-1.62c-0.346-0.258-0.647-0.842-0.907-1.749-0.086-0.259-0.281-1.166-0.583-2.721-0.216-1.037-0.324-2.592-0.324-4.665-0.043-2.204 0.065-3.672 0.324-4.406 0.216-0.604 0.237-2.851 0.065-6.738-0.217-4.018-0.324-6.307-0.324-6.869l0.648-6.996z" fill="#C28F44"/>
		<path d="m29.869 28.703l1.23 3.24c0.26 0.604 0.453 0.993 0.584 1.165 0.303 0.346 0.777 0.713 1.425 1.103 0.519 0.302 0.562-0.174 0.13-1.427-0.562-1.511-0.734-2.396-0.519-2.656 0.475-0.562 0.929-2.721 1.36-6.479l0.195 1.619c0.172 1.253 0.389 2.182 0.647 2.786 0.346 1.037 0.367 4.687 0.064 10.949 0 0.477-0.259 1.274-0.776 2.398-0.26 0.562-0.757 1.036-1.491 1.425-1.253-1.813-2.139-3.153-2.656-4.017-0.346-0.519-0.476-2.354-0.389-5.507l0.196-4.599z" fill="#57401F"/>
		<path d="m33.173 4.536l-0.324 0.972 0.584 1.037c0.345 0.562 0.323 2.268-0.064 5.119l-1.749-1.426-0.26 4.211c-0.346-2.289-0.69-3.412-1.036-3.369-0.26 0.044-0.433 0.583-0.519 1.62-0.043 0.519-0.065 1.016-0.065 1.491-0.433-2.548-0.647-4.319-0.647-5.313 0-0.605 0.215-1.209 0.647-1.814 0.173-0.302 0.367-0.541 0.584-0.713l-9.46-1.037 6.997-0.129c1.47-0.087 2.419-0.237 2.852-0.454l2.46-0.195z" fill="#57401F"/>
	</g>
		<path d="m33.887 20.15v1.231c0.043 0.908 0.107 1.663 0.193 2.268 0.174 0.993 0.303 2.073 0.389 3.239l-2.396 2.786c-0.52 0.691-1.317 1.469-2.397 2.333-7.429-0.303-12.159-0.455-14.189-0.455-1.987 0-6.847-0.323-14.578-0.972l0.777-7.904c6.393 0.216 11.209 0.433 14.449 0.648 3.24 0.216 7.602 0.216 13.087 0l4.665-3.174z" fill="#295224" fill-rule="evenodd"/>
		<path d="m29.999 31.684l-0.13-8.813 4.018-2.721v1.231c0.043 0.908 0.107 1.663 0.193 2.268 0.174 0.993 0.303 2.073 0.389 3.239l-2.396 2.786c-0.389 0.475-1.081 1.145-2.074 2.01z" fill="#1A3317" fill-rule="evenodd"/>
		<path d="m33.887 21.511l0.453 4.211c-0.691 1.123-1.491 2.051-2.396 2.786-0.908 0.69-1.729 1.446-2.463 2.268l-28.574-1.231 0.453-5.767 28.444 0.778 4.083-3.045z" fill="#EB8321" fill-rule="evenodd"/>
		<path d="m25.593 23.973c0.174 2.333 0.389 6.954 0.647 13.866-4.275-0.389-7.688-0.476-10.236-0.26-2.549 0.174-6.35-0.107-11.404-0.843 0.173-7.256 0.324-12.115 0.454-14.577l0.648-11.469h10.302c2.98 0 6.176 0.173 9.589 0.519-0.043 1.555-0.064 3.261-0.064 5.119-0.044 3.671-0.022 6.22 0.064 7.645z" fill="#295224" fill-rule="evenodd"/>
		<path d="m25.01 23.973c0.173 2.203 0.388 6.608 0.647 13.218-4.061-0.345-7.3-0.433-9.719-0.259-2.375 0.173-5.939-0.064-10.69-0.713 0.129-6.998 0.259-11.685 0.389-14.06l0.648-10.95h9.653c2.852 0 5.875 0.173 9.071 0.518l-0.064 4.859c-0.044 3.542-0.021 6.005 0.065 7.387z" fill="#EB8321" fill-rule="evenodd"/>
		<path d="m23.973 24.037l0.584 12.311c-3.586-0.345-6.437-0.432-8.553-0.259-2.074 0.173-5.205-0.064-9.395-0.713 0.13-6.479 0.259-10.819 0.389-13.022l0.518-10.173h8.488c2.505 0 5.162 0.151 7.969 0.454l-0.064 4.536c-0.044 3.282-0.022 5.57 0.064 6.866z" fill="#F0C9A6" fill-rule="evenodd"/>
		<path d="m12.505 29.092c2.203-0.95 4.168-2.095 5.896-3.435l5.313-4.017 0.194-0.065 0.648 14.772c-3.586-0.345-6.437-0.432-8.553-0.259-2.074 0.173-5.205-0.064-9.395-0.713l0.064-3.109c2.075-1.382 4.018-2.44 5.833-3.174z" fill="#C9A98C" fill-rule="evenodd"/>
		<path d="m25.074 24.361l4.73 0.195-0.324 6.22-3.952-0.195c-0.174-0.776-0.26-1.317-0.26-1.619l-0.194-4.601z" fill="#B36319" fill-rule="evenodd"/>
			<g fill-rule="evenodd">
				<path d="m13.736 13.347l0.648-0.388c0.562-0.216 1.274-0.173 2.138 0.129 0.908 0.303 1.382 0.951 1.425 1.944 0.043 0.518-0.021 0.994-0.194 1.426 1.166 0.734 1.36 1.49 0.583 2.268-0.432 0.432-1.123 0.475-2.073 0.129-1.167-0.431-1.922-0.604-2.268-0.518-0.431 0.13-0.95 0.065-1.555-0.194-0.518-0.216-0.929-0.216-1.231 0-0.346 0.303-0.799 0.303-1.36 0-0.475-0.259-0.886-0.648-1.231-1.166-0.259-0.389-0.043-0.821 0.648-1.296 0.778-0.605 1.188-0.972 1.231-1.102 0.259-0.821 0.54-1.296 0.842-1.425 0.345-0.174 1.144-0.109 2.397 0.193z" fill="#43853B"/>
				<path d="m13.962 14.157c-0.037 0.05-0.069 0.104-0.097 0.162l0.129-0.194-0.032 0.032c0.749-1.473 1.602-1.397 2.56 0.227 0.345 0.562 0.432 1.037 0.259 1.426-0.259 0.432-0.843 0.518-1.75 0.259v-0.454c-0.173 0.129-0.411 0.195-0.713 0.195-0.302-0.044-0.54-0.044-0.712 0l-0.583 0.648c-0.216 0.259-0.432 0.151-0.648-0.324-0.216 0.173-0.669 0.324-1.36 0.453-0.821 0.13-1.296 0.043-1.426-0.259-0.172-0.389 0.065-0.691 0.713-0.907 0.345-0.13 0.777-0.237 1.296-0.324-0.173-0.259-0.216-0.691-0.13-1.295 0.211 0 0.438 0.119 0.68 0.356 0.244 0.049 0.515 0.103 0.81 0.162 0.369 0.04 0.705-0.014 1.004-0.163z" fill="#51A147"/>
				<path d="m10.237 20.085l0.842-0.324c0.735-0.13 1.447-0.108 2.139 0.064 1.123 0.346 1.857 0.777 2.203 1.296-3.24 7.344-5.011 11.036-5.313 11.079-0.302 0.045-0.259-3.994 0.129-12.115z" fill="#EB8321"/>
				<polygon points="12.634 17.558 14.643 17.688 13.736 20.215 12.116 19.567" fill="#43853B"/>
				<polygon points="13.218 19.826 14.448 20.41 15.42 21.122 10.107 32.201" fill="#A35A17"/>
			</g>
			<path d="m13.736 13.347c-1.252-0.302-2.052-0.367-2.397-0.194-0.302 0.129-0.583 0.604-0.842 1.425-0.043 0.13-0.454 0.497-1.231 1.102-0.691 0.475-0.907 0.907-0.648 1.296 0.346 0.518 0.756 0.907 1.231 1.166 0.561 0.303 1.015 0.303 1.36 0 0.259-0.173 0.669-0.151 1.231 0.064l-0.324 1.361 0.324 0.129c-0.518-0.043-1.037 0-1.555 0.129l-0.648 0.259c-0.388 8.121-0.431 12.16-0.129 12.116 0.302-0.043 2.073-3.735 5.313-11.079-0.259-0.389-0.799-0.734-1.62-1.037l0.647-1.814c0.13 0 0.821 0.216 2.074 0.648 0.821 0.259 1.425 0.194 1.814-0.194 0.777-0.778 0.583-1.534-0.583-2.268 0.173-0.432 0.237-0.908 0.194-1.426-0.043-0.993-0.518-1.641-1.425-1.944-0.864-0.302-1.577-0.345-2.138-0.129l-0.648 0.39z" fill="none" stroke="#231F20" stroke-miterlimit="10" stroke-width=".5"/>
			<path d="m16.458 23.844c0.734-0.346 1.403-0.41 2.008-0.194l1.49 0.583c0.734 0.129 1.253 0.626 1.555 1.49l0.519 0.194c0.389 0.173 0.712 0.389 0.972 0.647 0.734 0.734 0.821 1.49 0.26 2.268-0.476 0.691-1.167 0.951-2.073 0.777l-1.167-0.453c-0.604 0.475-1.188 0.843-1.749 1.101-0.562 0.26-1.145 0.195-1.75-0.193-0.259 0.563-0.648 0.972-1.166 1.231-1.383 0.648-2.16 0.41-2.333-0.714-0.086-0.561-0.021-1.036 0.195-1.425l0.324-0.389c-0.346-0.562-0.389-1.166-0.13-1.814 0.13-0.346 0.389-0.647 0.777-0.906l0.583-0.324c0-0.173 0.065-0.39 0.194-0.648 0.259-0.475 0.756-0.887 1.491-1.231z" fill="#43853B" fill-rule="evenodd"/>
			<path d="m15.42 31.035l0.777-0.778 1.037 0.584c0.346 0.303 0.734 0.757 1.167 1.36l-0.907-1.944 1.166-0.258 0.583 0.842-0.13-1.296 0.713-0.324 0.194 1.685 0.583-1.685 0.843 0.324-0.389 0.907c-0.26 0.777-0.411 1.469-0.454 2.073-0.086 0.95 0.13 1.75 0.648 2.397l-0.583 0.26c-0.217 0.129-0.497 0.193-0.843 0.193l-0.519 0.195-0.905 0.13c-0.217 0.043-0.281 0.043-0.195 0 0.044 0 0.108-0.021 0.195-0.064-0.13-1.21-0.324-2.117-0.584-2.721-0.216-0.433-0.626-0.864-1.231-1.296-0.561-0.39-0.949-0.584-1.166-0.584z" fill="#397032" fill-rule="evenodd"/>
			<path d="m14.06 26.694c-0.087-0.173-0.021-0.324 0.194-0.454 0.172-0.086 0.345-0.107 0.518-0.064l-0.13 0.13c0.136-0.13 0.287-0.194 0.454-0.194 0.13-0.173 0.346-0.216 0.648-0.13 0.303 0.044 0.346 0.194 0.13 0.453 0.086 0.087 0.216 0.217 0.389 0.39 0.063 0.083 0.095 0.158 0.097 0.227 0.022-0.011 0.055-0.021 0.098-0.032 0.129 0.173 0.107 0.41-0.065 0.712-0.122 0.242-0.283 0.275-0.486 0.098-0.101 0.154-0.372 0.252-0.81 0.292-0.475 0.086-0.755 0.043-0.842-0.13 0.172 0.389 0.108 0.626-0.194 0.713-0.346 0.043-0.432-0.13-0.259-0.519l-0.259 0.194c-0.044-0.259 0-0.497 0.129-0.713-0.043-0.087 0-0.259 0.13-0.518 0.085-0.26 0.171-0.412 0.258-0.455z" fill="#51A147" fill-rule="evenodd"/>
			<path d="m18.466 24.297c0.993-0.043 1.209 0.13 0.647 0.519-0.582 0.333-0.96 0.365-1.134 0.098 0.143 0.247 0.109 0.496-0.098 0.744-0.215 0.26-0.366 0.217-0.452-0.129-0.13 0.302-0.347 0.41-0.648 0.324l0.194-0.648-0.842 0.259c0-0.303 0.021-0.475 0.064-0.518-0.648 0.432-0.863 0.388-0.648-0.13 0.216-0.519 0.519-0.627 0.908-0.324h0.064c0.077-0.232 0.207-0.362 0.389-0.389 0.475-0.432 0.799-0.432 0.971 0 0.606-0.13 0.801-0.066 0.585 0.194z" fill="#51A147" fill-rule="evenodd"/>
			<path d="m20.15 24.557v0.227c0.063-0.099 0.193-0.066 0.389 0.097 0.303 0.259 0.454 0.432 0.454 0.519 0.043 0.216-0.108 0.367-0.454 0.454-0.236 0.067-0.398 0.023-0.486-0.13-0.41 0.34-0.615 0.34-0.615 0 0-0.276 0.184-0.471 0.551-0.584l-0.227 0.065c-0.13 0-0.216-0.044-0.26-0.13l0.195 0.064c-0.13-0.129-0.151-0.259-0.065-0.388 0.13-0.13 0.303-0.194 0.518-0.194z" fill="#51A147" fill-rule="evenodd"/>
			<path d="m19.243 26.824l-0.194 0.324c0.432-0.087 0.648 0.064 0.648 0.453 0.216 0 0.323 0.086 0.323 0.259-0.129 0-0.237-0.043-0.323-0.13-0.39 0.476-0.713 0.605-0.972 0.39 0 0.173-0.13 0.302-0.39 0.389-0.303 0.129-0.476 0.259-0.519 0.388 0.303 0.044 0.411 0.195 0.324 0.455-0.087 0.258-0.237 0.323-0.453 0.193l0.064-0.26c-0.389 0.39-0.691 0.541-0.907 0.454-0.29-0.182-0.29-0.408 0-0.681-0.132 0.064-0.305 0.098-0.518 0.098-0.086-0.26 0.021-0.54 0.324-0.842 0.259-0.303 0.54-0.476 0.842-0.519-0.13-0.346-0.087-0.562 0.129-0.647 0.153-0.052 0.25-0.052 0.292 0 0.014-0.217 0.176-0.324 0.486-0.324 0.175-0.044 0.455-0.044 0.844 0z" fill="#51A147" fill-rule="evenodd"/>
			<path d="m21.155 26.306c0.055 4e-3 0.108 0.015 0.161 0.032 0.153 0.021 0.369 0.032 0.648 0.032 0.389 0.043 0.475 0.259 0.259 0.648-0.13 0-0.237-0.043-0.324-0.13-0.82 0.519-1.102 0.454-0.842-0.194-0.303 0.216-0.497 0.324-0.584 0.324-0.043-0.217 0.044-0.411 0.26-0.584 0.141-0.07 0.271-0.113 0.389-0.129h0.033z" fill="#51A147" fill-rule="evenodd"/>
			<path d="m13.93 29.352c0.173-0.303 0.389-0.434 0.648-0.39l-0.194 0.194c0.432-0.086 0.626 0 0.583 0.26-0.173 0.086-0.28 0.215-0.324 0.389-0.086 0.259-0.151 0.409-0.194 0.452-0.259 0.26-0.497 0.238-0.712-0.064-0.158-0.236-0.104-0.441 0.162-0.614-1e-3 -0.028 0.01-0.103 0.031-0.227z" fill="#51A147" fill-rule="evenodd"/>
			<path d="m16.458 31.1l0.907 0.195c0.303 0.086 0.647 0.518 1.037 1.296l0.518 0.193-0.259-1.813c0.087-0.044 0.324 0.28 0.713 0.973 0.173 0.345 0.346 0.69 0.519 1.036l0.323-1.036 0.194 2.461-1.036-0.972 0.194 1.36-0.648-1.23-0.129 1.36-0.843-2.397c-0.173-0.475-0.475-0.842-0.907-1.102l-0.583-0.324z" fill="#43853B" fill-rule="evenodd"/>
			<path d="m16.458 23.844c-0.735 0.345-1.231 0.756-1.491 1.23-0.129 0.259-0.194 0.476-0.194 0.648l-0.583 0.324c-0.389 0.259-0.647 0.561-0.777 0.906-0.259 0.648-0.216 1.253 0.13 1.814l-0.324 0.389c-0.216 0.389-0.281 0.864-0.195 1.425 0.173 1.124 0.95 1.362 2.333 0.714l0.323-0.194c1.123 0.563 1.836 1.167 2.138 1.815 0.26 0.604 0.454 1.511 0.584 2.721-0.087 0.043-0.151 0.064-0.195 0.064-0.086 0.043-0.021 0.043 0.195 0l0.906-0.129 0.519-0.195c0.346 0 0.626-0.064 0.843-0.193l0.583-0.26c-0.519-0.647-0.734-1.447-0.648-2.397 0.087-0.648 0.367-1.599 0.843-2.851 0.777 0.087 1.382-0.194 1.814-0.843 0.562-0.777 0.475-1.533-0.26-2.268-0.26-0.259-0.583-0.475-0.972-0.647l-0.519-0.194c-0.302-0.864-0.82-1.361-1.555-1.49l-1.49-0.583c-0.606-0.216-1.275-0.152-2.008 0.194zm2.72 5.895l0.065 1.102-0.518-0.842 0.453-0.26zm-1.619 0.649l0.843 1.813c-0.433-0.604-0.821-1.058-1.167-1.36-0.216-0.215-0.497-0.389-0.842-0.518l0.13-0.26 1.036 0.325zm2.98-0.972l-0.519 1.489-0.194-1.62 0.194-0.129 0.519 0.26z" fill="none" stroke="#231F20" stroke-miterlimit="10" stroke-width=".5"/>
	<path d="m29.416 24.686c0.172-0.389 0.972-1.036 2.396-1.944 0.734-0.431 1.426-0.842 2.074-1.23l0.453 4.211c-0.691 1.123-1.491 2.051-2.396 2.786-0.648 0.475-1.384 1.122-2.204 1.943-0.518-3.239-0.626-5.162-0.323-5.766z" fill="#8A4C13" fill-rule="evenodd"/>
	<path d="m2.462 23.908v1.49c0.043 1.079 0.194 1.857 0.454 2.332 0.389 0.691 1.037 1.447 1.944 2.269l-3.952-0.454 0.453-5.767 1.101 0.13z" fill="#B36319" fill-rule="evenodd"/>
</g>
</svg>