<svg viewBox="0 0 313 240" xmlns="http://www.w3.org/2000/svg" xml:space="preserve" style="fill-rule:evenodd;clip-rule:evenodd">
  <path d="m304.6 149-1 6.8a274 274 0 0 1-7.4 32.6c-2.4 1-5 1.5-7.5 1.6-8.3.7-130.5 3.2-133.4 3.2-2.8 0-125-2.5-133.3-3.2-2.3-.1-4.6-.6-6.8-1.3A273.3 273.3 0 0 1 6.7 149C4.2 128-2 101.3 37.2 82.8L60 13.4a6.1 6.1 0 0 1 4.8-4c12.6-2.1 54.7-8.4 90.8-8.1 36.1-.3 78.3 6 90.9 8 2.2.4 4.1 2 4.8 4.1L274 82.8c39.2 18.5 33.1 45.2 30.6 66.2Z" style="fill:#ea6d2f;fill-rule:nonzero"/>
  <path d="M312 159.4v76.2c0 2-1.7 3.6-3.7 3.6h-35.6c-2 0-3.6-1.6-3.6-3.6V220c0-2-1.7-3.6-3.7-3.6H47c-2 0-3.6 1.6-3.6 3.6v15.4c0 2-1.7 3.7-3.7 3.7H4c-2 0-3.6-1.6-3.6-3.6v-76.1c0-2 1.7-3.7 3.7-3.7h3.5c1.9 11 4.4 22 7.6 32.9 2.2.7 4.5 1.2 6.8 1.3 8.2.7 130.5 3.2 133.3 3.2 2.9 0 125.1-2.5 133.4-3.2 2.5-.1 5-.7 7.5-1.6a274 274 0 0 0 7.4-32.6h4.7a3.6 3.6 0 0 1 3.6 3.6Z" style="fill:#3f3f3f;fill-rule:nonzero"/>
  <path d="M241.1 129.7c2.6 0 4.9 1.4 6.3 3.5l16 24.3c1.3 2 1.5 4.6.7 6.9l-3.7 10.2a7.6 7.6 0 0 1-6.6 5l-97 4c-.5 0 .6 0 0 0l-99.4-4c-3-.2-5.6-2.2-6.6-5l-3.7-10.2c-.8-2.3-.5-4.9.8-6.9l16-24.3a7.7 7.7 0 0 1 6.2-3.5l79.6-2.5h11.2l80.2 2.5Z" style="fill:#fff;fill-rule:nonzero"/>
  <path d="M307 195.7c-.2 3.7-3 6.6-6.6 7a568.5 568.5 0 0 1-51.2 4.4c-24.5.6-75.9 1.9-93.8 1.6h.6-1.3.5c-17.9.3-69.3-1-93.8-1.6-18.5-.5-41-3-51.1-4.3a7.7 7.7 0 0 1-6.7-7c-.3-4.4.5-9.3 5.6-9.7 1.8 1.4 3.9 2.4 6 3.1 2.2.8 4.5 1.2 6.8 1.4 8.3.6 130.5 3.2 133.3 3.2 3 0 125.1-2.6 133.4-3.2 2.6-.2 5-.8 7.5-1.6 1.9-.7 3.6-1.7 5.2-2.9 5.2.4 6 5.3 5.6 9.6Z" style="fill:url(#a);fill-rule:nonzero"/>
  <path d="M161.4 209.3h-6.2c-17.2.2-66.2-1-93.8-1.7-18-.4-39.8-3-51.2-4.3a8.2 8.2 0 0 1-7.1-7.5c-.3-3.7.3-6.5 1.8-8.2a6 6 0 0 1 4.3-2l.4.1c1.7 1.3 3.7 2.3 5.8 3 2.1.7 4.4 1.2 6.6 1.3 8.9.7 132.4 3.2 133.3 3.2 1 0 124.5-2.5 133.4-3.2 2.5-.1 5-.7 7.3-1.5 1.8-.7 3.5-1.6 5.1-2.8l.4-.1a6 6 0 0 1 4.3 2c1.4 1.7 2 4.4 1.8 8.2-.3 3.8-3.3 7-7.2 7.5a565 565 0 0 1-51.2 4.3c-24.9.7-67 1.7-87.8 1.7Zm-5.3-1c17.8.1 65.8-1 93.1-1.7 18-.5 39.8-3 51.1-4.4 3.4-.4 6-3.1 6.2-6.5.3-3.4-.3-6-1.5-7.4a5 5 0 0 0-3.4-1.7 20 20 0 0 1-5.3 2.8c-2.4 1-5 1.5-7.6 1.7-8.8.7-132.5 3.2-133.4 3.2-.9 0-124.5-2.5-133.4-3.2a28 28 0 0 1-6.9-1.4c-2.1-.7-4.1-1.7-6-3a5 5 0 0 0-3.3 1.6c-1.3 1.5-1.8 4-1.6 7.4.3 3.4 2.9 6 6.2 6.5 11.4 1.5 33 4 51.1 4.4a3773.9 3773.9 0 0 0 93.3 1.6H156Z" style="fill:#fff;fill-rule:nonzero"/>
  <path d="M69.3 68c-1.9 0-6-.3-8-2.7-1.2-1.4-1.5-3.3-1-5.5 2-7.7 10-34.9 10.4-36.3.2-1 2-8 19.1-10 17.6-2 50.6-4.7 65.7-4.5 15-.3 48 2.6 65.6 4.5 17.1 2 19 9 19.1 10 .4 1.5 8.5 28.7 10.4 36.3.6 2.2.3 4-1 5.5-2.6 3.1-8.7 2.7-9 2.7-.5 0-58.9-4.5-85.1-4.8-26.3.3-84.6 4.7-85.2 4.8h-1Z" style="fill:#f7f7f7;fill-rule:nonzero"/>
  <path d="M262.5 80.3a1721 1721 0 0 0-80.1-7.6 476.6 476.6 0 0 0-80.3 1.9 1056 1056 0 0 0-40 4.2l-6.7.8-3.4.4-2.5.3h-.4l-.2.1h-.1.1l.6-.1.9-.2 1.6-.3 3.3-.6L62 78a776 776 0 0 1 40-5.5c17.7-2 35.7-3.3 53.6-3.3a456.2 456.2 0 0 1 53.7 3.4c17.9 2 35.6 4.5 53.2 7.7Z" style="fill-rule:nonzero"/>
  <circle cx="35.5" cy="121.7" r="22" style="fill:#fff"/>
  <circle cx="35.5" cy="121.7" r="18.5" style="fill:#fff"/>
  <circle cx="34.5" cy="167.9" r="7.9" style="fill:#fff"/>
  <circle cx="34.5" cy="167.9" r="5.8" style="fill:#fff"/>
  <circle cx="277.2" cy="167.9" r="7.9" style="fill:#fff"/>
  <circle cx="277.2" cy="167.9" r="5.8" style="fill:#fff"/>
  <circle cx="277.2" cy="121.7" r="22" style="fill:#fff"/>
  <path d="M77 181.3a6 6 0 0 0-6-6h-.3a6 6 0 0 0-6 6v34.3a6 6 0 0 0 6 6h.3a6 6 0 0 0 6-6v-34.3Z" style="fill:url(#b);stroke:#979797;stroke-width:.52px"/>
  <path d="M248.5 180.7a6 6 0 0 0-6.1-6h-.4a6 6 0 0 0-6 6.2l.7 34.3a6 6 0 0 0 6 5.9h.5a6 6 0 0 0 5.9-6.2l-.6-34.2Z" style="fill:url(#c);stroke:#979797;stroke-width:.52px"/>
  <path d="M71 222.1h-.3c-3.6 0-6.6-3-6.6-6.5v-34.3c0-3.6 3-6.5 6.6-6.5h.3c3.7 0 6.6 2.9 6.6 6.5v34.3c0 3.6-3 6.5-6.6 6.5Zm-.3-46.3c-3 0-5.5 2.5-5.5 5.5v34.3c0 3 2.4 5.5 5.5 5.5h.3c3 0 5.5-2.5 5.5-5.5v-34.3c0-3-2.4-5.5-5.5-5.5h-.3ZM242.6 222.1h-.4c-3.6 0-6.5-3-6.5-6.5v-34.3c0-3.6 3-6.5 6.5-6.5h.4c3.6 0 6.5 2.9 6.5 6.5v34.3c0 3.6-2.9 6.5-6.5 6.5Zm-.4-46.3c-3 0-5.5 2.5-5.5 5.5v34.3c0 3 2.5 5.5 5.5 5.5h.4c3 0 5.5-2.5 5.5-5.5v-34.3c0-3-2.5-5.5-5.5-5.5h-.4Z" style="fill:#fff;fill-rule:nonzero"/>
  <path d="M63.2 81.5a127.5 127.5 0 0 1 4 19 286.6 286.6 0 0 1 2.4 19.4c-1-3-1.9-6.2-2.6-9.4A194.6 194.6 0 0 1 64 91.3c-.3-3.3-.6-6.5-.7-9.8ZM248.8 81.5a107.6 107.6 0 0 1-2 19.4 168 168 0 0 1-4.4 19 167.3 167.3 0 0 1 2.4-19.3 263.6 263.6 0 0 1 4-19Z" style="fill-rule:nonzero"/>
  <ellipse cx="156.5" cy="109.3" rx="9.5" ry="4.1" style="fill:#fff"/>
  <path d="M64.6 139.6c15-1.4 30-2.3 45.2-3.1l22.6-1c7.5-.3 15-.5 22.7-.5a1105.8 1105.8 0 0 1 90.5 4.7c-15.2 0-30.3-.2-45.3-.4l-22.7-.4c-7.5-.1-15-.4-22.5-.3l-22.6.3-22.6.4c-15.1.2-30.2.4-45.3.3ZM61.3 145.9c15.6-1.4 31.2-2.3 46.8-3.1l23.5-1c7.8-.3 15.6-.5 23.5-.5a1223.3 1223.3 0 0 1 93.8 4.6c-15.7.1-31.4 0-47-.3l-23.4-.4c-7.8-.1-15.7-.4-23.4-.3l-23.4.3-23.5.4c-15.6.3-31.2.4-46.9.3ZM57.1 152.2c16.3-1.2 32.6-2 49-2.7l24.4-1 24.6-.4a1288.4 1288.4 0 0 1 98 5.1c-16.4 0-32.8-.2-49.1-.5l-24.5-.6c-8.1 0-16.3-.4-24.4-.3l-24.5.2c-8.1.1-16.3.3-24.5.3-16.3.1-32.7.2-49 0ZM54.6 158.3c16.7-1.2 33.4-2 50.2-2.7l25-1 25.2-.4 12.6.2 12.6.3 12.6.4 6.2.2 6.3.2c16.8.7 33.5 1.6 50.2 2.8-16.8.3-33.5.2-50.3 0l-25.1-.2c-8.4 0-16.7-.3-25-.3l-25.2.3-25.1.3c-16.7.1-33.4.2-50.2 0ZM52.3 163c17.1-1 34.2-1.5 51.4-2l25.7-.6 25.7-.4c17.2.1 34.3.7 51.4 1.3 17.1.7 34.2 1.6 51.3 2.8-17.1.3-34.2.2-51.4 0l-25.7-.2c-8.5 0-17-.3-25.6-.2l-25.7.1h-25.7c-17.1 0-34.3-.3-51.4-.8ZM54.6 168.4c16.7-.8 33.5-1.3 50.2-1.6l25.1-.4 25.2-.2 25 .2 25.2.4c16.7.3 33.5.8 50.2 1.6-16.7.7-33.5 1-50.2 1.2-8.4.2-16.8.2-25.1.2h-50.3c-8.3 0-16.7 0-25-.2-16.8-.2-33.6-.5-50.3-1.2ZM57.1 173.6c16.3-.4 32.7-.5 49-.4l24.5.1 24.5.2 24.4-.2H204c16.4.2 32.7.4 49 1-16.3.9-32.6 1.4-49 1.9l-24.4.5-24.5.4c-8.2 0-16.4-.2-24.6-.4L106 176c-16.3-.6-32.6-1.3-48.9-2.4Z" style="fill-rule:nonzero"/>
  <circle cx="277.2" cy="121.7" r="18.5" style="fill:#fff"/>
  <defs>
    <radialGradient id="b" cx="0" cy="0" r="1" gradientUnits="userSpaceOnUse" gradientTransform="translate(77 216.5) scale(137.412)">
      <stop offset="0" style="stop-color:#fff;stop-opacity:1"/>
      <stop offset="1" style="stop-color:#000;stop-opacity:1"/>
    </radialGradient>
    <radialGradient id="c" cx="0" cy="0" r="1" gradientUnits="userSpaceOnUse" gradientTransform="rotate(-1 12494.2 -14163.8) scale(137.41193)">
      <stop offset="0" style="stop-color:#fff;stop-opacity:1"/>
      <stop offset="1" style="stop-color:#000;stop-opacity:1"/>
    </radialGradient>
    <linearGradient id="a" x1="0" y1="0" x2="1" y2="0" gradientUnits="userSpaceOnUse" gradientTransform="rotate(90 -18.3 173.7) scale(16.7381)">
      <stop offset="0" style="stop-color:#fff;stop-opacity:1"/>
      <stop offset="1" style="stop-color:#000;stop-opacity:1"/>
    </linearGradient>
  </defs>
</svg>