<svg viewBox="0 0 412 308" xmlns="http://www.w3.org/2000/svg" xml:space="preserve" style="fill-rule:evenodd;clip-rule:evenodd;stroke-linejoin:round;stroke-miterlimit:2">
  <clipPath id="a">
    <path d="M267 24h119v177H267z"/>
  </clipPath>
  <g clip-path="url(#a)">
    <path d="m378 26 2 16-5 5c3 2 5 5 5 9a1009 1009 0 0 0 6 105 66 66 0 0 1-4 31c-1 3-3 5-5 6-2 2-19 2-49 2-31 0-48-1-54-3-4-1-6-5-6-13l1-22 4-59 2-48c0-2 2-4 6-6l5-3-9-3 1-19 34 1 66 1Z" style="fill:#ea6d2f"/>
    <path d="M375 26h3l2 16-5 5c3 2 5 5 5 9a1009 1009 0 0 0 6 105 66 66 0 0 1-4 31c-1 3-3 5-5 6-3 0-5-7-8-21-2-14-3-25-2-33V99l-1-39 2-7 2-3c0-4 1-7 4-8 1-2 2-7 1-16Z" style="fill-opacity:.57"/>
    <path d="m372 48-32 1-48-2c-4 0-9 2-16 5l3-5-2-4 35 1 48-1 17 1-5 4Z" style="fill:#3a3a3a;fill-opacity:.5"/>
    <path d="m337 191 10-3h18l10 10-4 2h-45c-30 0-48-1-52-3-4-1-6-5-7-12 5 6 10 10 14 10l22 1a2876 2876 0 0 0 34-5Z" style="fill:#925434"/>
  </g>
  <clipPath id="b">
    <path d="M186 0h119v177H186z"/>
  </clipPath>
  <g clip-path="url(#b)">
    <path d="m297 2 2 16-5 5c3 2 5 5 5 9a1009 1009 0 0 0 6 105 66 66 0 0 1-4 31c-1 3-3 5-5 6-2 2-19 2-49 2-31 0-48-1-54-3-4-1-6-5-6-13l1-22 4-59 2-48c0-2 2-4 6-6l5-3-9-3 1-19 34 1 66 1Z" style="fill:#ea6d2f"/>
    <path d="M294 2h3l2 16-5 5c3 2 5 5 5 9a1009 1009 0 0 0 6 105 66 66 0 0 1-4 31c-1 3-3 5-5 6-3 0-5-7-8-21-2-14-3-25-2-33V75l-1-39 2-7 2-3c0-4 1-7 4-8 1-2 2-7 1-16Z" style="fill-opacity:.57"/>
    <path d="m291 24-32 1-48-2c-4 0-9 2-16 5l3-5-2-4 35 1 48-1 17 1-5 4Z" style="fill:#3a3a3a;fill-opacity:.5"/>
    <path d="m256 167 10-3h18l10 10-4 2h-45c-30 0-48-1-52-3-4-1-6-5-7-12 5 6 10 10 14 10l22 1a2939 2939 0 0 0 34-5Z" style="fill:#925434"/>
  </g>
  <clipPath id="c">
    <path d="M99 11h119v177H99z"/>
  </clipPath>
  <g clip-path="url(#c)">
    <path d="m210 12 2 17-4 5c2 2 4 5 4 9a1009 1009 0 0 0 6 105 66 66 0 0 1-4 30c-1 3-3 6-5 7s-19 2-49 2c-31-1-48-1-53-3-5-1-7-5-7-13l1-22 4-59 2-48c0-2 2-4 6-6l5-4-9-2 1-19 34 1h66Z" style="fill:#ea6d2f"/>
    <path d="m207 13 2-1h1l2 17-4 5c2 2 4 5 4 9a1009 1009 0 0 0 6 105 66 66 0 0 1-4 30c-1 3-3 6-5 7-3 0-5-7-8-21-2-14-3-25-2-33V85l-1-38 2-7 2-4c0-3 1-6 4-7 2-2 2-7 1-16Z" style="fill-opacity:.57"/>
    <path d="m204 35-32 1-48-2c-4 0-9 2-16 5l3-5-2-4h35a781 781 0 0 1 65 0l-5 5Z" style="fill:#3a3a3a;fill-opacity:.5"/>
    <path d="m169 178 10-4h18l10 11-4 1h-45c-30 0-48 0-51-2-5-1-7-6-8-12 5 6 10 9 14 10l22 1a2871 2871 0 0 0 34-5Z" style="fill:#925434"/>
  </g>
  <path d="M56 43a10 10 0 0 0-10 13l34 138c1 4 5 8 9 8h288c5 0 9-4 10-9l24-133a10 10 0 0 0-10-12L56 43Zm38 149v-10h-7l2 10h5Zm17 0v-10H99v10h12Zm17 0v-10h-12v10h12Zm17 0v-10h-12v10h12Zm17 0v-10h-12v10h12Zm17 0v-10h-12v10h12Zm17 0v-10h-12v10h12Zm17 0v-10h-12v10h12Zm16 0v-10h-11v10h11Zm17 0v-10h-11v10h11Zm17 0v-10h-12v10h12Zm17 0v-10h-12v10h12Zm17 0v-10h-12v10h12Zm17 0v-10h-12v10h12Zm17 0v-10h-12v10h12Zm17 0v-10h-12v10h12Zm17 0v-10h-12v10h12Zm5-10v10h7l2-10h-9Zm11-13v-7h-11v18h10l1-11ZM86 180h8v-18H83v2l3 16Zm127-18h-12v18h12v-18Zm-34 0h-12v18h12v-18Zm-17 0h-12v18h12v-18Zm-17 0h-12v18h12v-18Zm-17 0h-12v18h12v-18Zm-17 0H99v18h12v-18Zm118 0h-11v18h11v-18Zm17 0h-11v18h11v-18Zm17 0h-12v18h12v-18Zm17 0h-12v18h12v-18Zm17 0h-12v18h12v-18Zm17 0h-12v18h12v-18Zm17 0h-12v18h12v-18Zm17 0h-12v18h12v-18Zm17 0h-12v18h12v-18Zm-169 0h-12v18h12v-18Zm152-21h-12v18h12v-18Zm-17 0h-12v18h12v-18Zm-17 0h-12v18h12v-18Zm-17 0h-12v18h12v-18Zm-17 0h-12v18h12v-18Zm-17 0h-12v18h12v-18Zm-17 0h-11v18h11v-18Zm-17 0h-11v18h11v-18Zm-16 0h-12v18h12v-18Zm-17 0h-12v18h12v-18Zm-17 0h-12v18h12v-18Zm-17 0h-12v18h12v-18Zm-17 0h-12v18h12v-18Zm-17 0h-12v18h12v-18Zm-17 0H99v18h12v-18Zm-17 0H83v18h11v-18Zm287 0h-11v18h11v-18Zm-16 0h-12v18h12v-18Zm-287 0h-1l1 2v-2Zm309-3 3-18h-4v18h1Zm-311 0h2v-18h-6l4 18Zm272-18h-12v18h12v-18Zm-17 0h-12v18h12v-18Zm-17 0h-12v18h12v-18Zm-17 0h-12v18h12v-18Zm-17 0h-12v18h12v-18Zm-17 0h-12v18h12v-18Zm-17 0h-11v18h11v-18Zm-17 0h-11v18h11v-18Zm-16 0h-12v18h12v-18Zm-17 0h-12v18h12v-18Zm169 0h-12v18h12v-18Zm-203 0h-12v18h12v-18Zm-17 0h-12v18h12v-18Zm-17 0h-12v18h12v-18Zm-17 0H99v18h12v-18Zm-17 0H83v18h11v-18Zm287 0h-11v18h11v-18Zm-202 0h-12v18h12v-18Zm212-2 3-18h-8v18h5Zm-320 0h7v-18H67l4 18Zm277-18h-12v18h12v-18Zm-17 0h-12v18h12v-18Zm-17 0h-12v18h12v-18Zm-17 0h-12v18h12v-18Zm-17 0h-12v18h12v-18Zm-17 0h-12v18h12v-18Zm-17 0h-11v18h11v-18Zm-17 0h-11v18h11v-18Zm-16 0h-12v18h12v-18Zm-17 0h-12v18h12v-18Zm169 0h-12v18h12v-18Zm-203 0h-12v18h12v-18Zm-17 0h-12v18h12v-18Zm-17 0h-12v18h12v-18Zm-17 0H99v18h12v-18Zm-17 0H83v18h11v-18Zm287 0h-11v18h11v-18Zm-202 0h-12v18h12v-18Zm215-3 4-18h-12v18h8Zm-46-18h-12v18h12V79Zm-17 0h-12v18h12V79Zm34 0h-12v18h12V79Zm-68 0h-12v18h12V79Zm-17 0h-12v18h12V79Zm-17 0h-12v18h12V79Zm-17 0h-11v18h11V79Zm-17 0h-11v18h11V79Zm-16 0h-12v18h12V79Zm-17 0h-12v18h12V79Zm-17 0h-12v18h12V79Zm-17 0h-12v18h12V79Zm-17 0h-12v18h12V79Zm-17 0h-12v18h12V79Zm-17 0H99v18h12V79Zm-17 0H83v18h11V79Zm287 0h-11v18h11V79Zm-67 0h-12v18h12V79ZM66 97h12V79H66v18Zm299-39h-12v18h12V58Zm16 0h-11v18h11V58Zm-50 0h-12v18h12V58Zm-17 0h-12v18h12V58Zm-17 0h-12v18h12V58Zm-17 0h-12v18h12V58Zm-17 0h-12v18h12V58Zm-17 0h-11v18h11V58Zm-17 0h-11v18h11V58Zm-16 0h-12v18h12V58Zm-17 0h-12v18h12V58Zm-17 0h-12v18h12V58Zm-17 0h-12v18h12V58Zm-17 0h-12v18h12V58Zm-17 0h-12v18h12V58Zm-17 0H99v18h12V58Zm-17 0H83v18h11V58Zm-16 0H66v18h12V58Zm319 0h-11v18h12V58h-1Zm-49 0h-12v18h12V58Z" style="fill:#016082"/>
  <path d="M330 273a17 17 0 1 1 0 35 17 17 0 0 1 0-35Zm-215 0a17 17 0 1 1 0 35 17 17 0 0 1 0-35ZM69 117 56 59c-1-4-5-7-10-7H9a10 10 0 0 0 0 19h30l10 46a10 10 0 0 0 0 19h5l14 67c1 4 5 7 10 7l7 48c1 4 5 8 9 8l254 4a10 10 0 0 0 1-19l-246-4-6-37h149a10 10 0 0 0 0-19H85l-12-55 40 1c4 0 8-3 9-7l28-88a10 10 0 0 0-19-6l-25 82-37-1Z" style="fill:#016082"/>
</svg>