<?xml version="1.0" encoding="UTF-8" standalone="no"?><!DOCTYPE svg PUBLIC "-//W3C//DTD SVG 1.1//EN" "http://www.w3.org/Graphics/SVG/1.1/DTD/svg11.dtd"><svg width="100%" height="100%" viewBox="0 0 42 42" version="1.1" xmlns="http://www.w3.org/2000/svg" xmlns:xlink="http://www.w3.org/1999/xlink" xml:space="preserve" xmlns:serif="http://www.serif.com/" style="fill-rule:evenodd;clip-rule:evenodd;stroke-linejoin:round;stroke-miterlimit:2;"><path d="M20.811,0c11.486,0 20.811,9.325 20.811,20.811c0,11.486 -9.325,20.811 -20.811,20.811c-11.486,0 -20.811,-9.325 -20.811,-20.811c0,-11.486 9.325,-20.811 20.811,-20.811Zm-3.443,11.993c-0.228,-0.012 -0.463,0.012 -0.696,0.076c-1.167,0.322 -1.853,1.531 -1.532,2.698l1.95,7.067c0.054,0.195 0.132,0.376 0.231,0.541c0.02,0.142 0.067,0.283 0.141,0.415c0.922,1.655 1.226,3.277 0.824,4.876c-0.424,1.685 -1.594,3.317 -3.479,4.94c-0.51,0.439 -0.567,1.209 -0.129,1.718c0.439,0.51 1.209,0.567 1.719,0.129c2.344,-2.019 3.726,-4.098 4.252,-6.192c0.408,-1.623 0.319,-3.27 -0.273,-4.936c2.747,2.89 4.285,6.287 4.122,10.4c-0.027,0.672 0.497,1.239 1.169,1.266c0.672,0.026 1.239,-0.498 1.266,-1.17c0.206,-5.184 -1.86,-9.414 -5.569,-12.955c-0.012,-0.066 -0.027,-0.132 -0.045,-0.198l-0.816,-2.957c2.372,0.964 4.771,1.096 7.189,0.564c0.525,-0.115 0.858,-0.636 0.742,-1.161c-0.115,-0.526 -0.636,-0.859 -1.161,-0.743c-2.518,0.554 -5.007,0.241 -7.463,-1.172l-0.143,-0.52c2.95,0.823 5.617,0.814 8.062,0.175c0.52,-0.136 0.832,-0.669 0.696,-1.189c-0.136,-0.521 -0.669,-0.833 -1.189,-0.697c-2.734,0.715 -5.779,0.5 -9.252,-0.933c-0.203,-0.084 -0.418,-0.094 -0.616,-0.042Zm-1.766,-5.362c1.345,-0 2.437,1.092 2.437,2.437c-0,1.345 -1.092,2.437 -2.437,2.437c-1.345,-0 -2.437,-1.092 -2.437,-2.437c-0,-1.345 1.092,-2.437 2.437,-2.437Z" style="fill:#016082;"/></svg>