<?xml version="1.0" encoding="UTF-8" standalone="no"?><!DOCTYPE svg PUBLIC "-//W3C//DTD SVG 1.1//EN" "http://www.w3.org/Graphics/SVG/1.1/DTD/svg11.dtd"><svg width="100%" height="100%" viewBox="0 0 42 42" version="1.1" xmlns="http://www.w3.org/2000/svg" xmlns:xlink="http://www.w3.org/1999/xlink" xml:space="preserve" xmlns:serif="http://www.serif.com/" style="fill-rule:evenodd;clip-rule:evenodd;stroke-linejoin:round;stroke-miterlimit:2;"><path d="M20.811,0c11.486,0 20.811,9.325 20.811,20.811c0,11.486 -9.325,20.811 -20.811,20.811c-11.486,0 -20.811,-9.325 -20.811,-20.811c0,-11.486 9.325,-20.811 20.811,-20.811Zm-1.401,12.629l-5.302,3.615c-0.274,0.187 -0.434,0.5 -0.425,0.832c0.009,0.331 0.186,0.636 0.47,0.807l4.474,2.705l-0.009,1.689c-0.001,0.104 0.006,0.206 0.019,0.307l-0.808,11.07c-0.049,0.671 0.456,1.255 1.126,1.304c0.671,0.049 1.255,-0.456 1.304,-1.127l0.678,-9.289c0.015,-0 0.03,-0.001 0.044,-0.002l1.366,9.498c0.095,0.666 0.713,1.128 1.379,1.033c0.666,-0.096 1.128,-0.714 1.033,-1.38l-1.633,-11.359l0.008,-1.487l4.395,-3.123c0.26,-0.184 0.413,-0.484 0.41,-0.802c-0.002,-0.318 -0.159,-0.615 -0.421,-0.796l-5.484,-3.777c-0.089,-0.061 -0.184,-0.105 -0.282,-0.134c-0.255,-0.102 -0.534,-0.159 -0.825,-0.16c-0.582,-0.004 -1.114,0.215 -1.517,0.576Zm3.753,2.863l-0.016,2.952l2.117,-1.504l-2.101,-1.448Zm-6.703,1.508l2.179,1.317l0.015,-2.813l-2.194,1.496Zm4.455,-10.461c1.345,-0 2.437,1.092 2.437,2.437c0,1.345 -1.092,2.437 -2.437,2.437c-1.345,-0 -2.437,-1.092 -2.437,-2.437c-0,-1.345 1.092,-2.437 2.437,-2.437Z" style="fill:#016082;"/></svg>